<?xml version="1.0" standalone="no"?>
<!DOCTYPE svg PUBLIC "-//W3C//DTD SVG 20010904//EN"
 "http://www.w3.org/TR/2001/REC-SVG-20010904/DTD/svg10.dtd">
<svg version="1.0" xmlns="http://www.w3.org/2000/svg"
 width="1000.000000pt" height="1000.000000pt" viewBox="0 0 1000.000000 1000.000000"
 preserveAspectRatio="xMidYMid meet">

<g transform="translate(0.000000,1000.000000) scale(0.100000,-0.100000)"
fill="#000000" stroke="none">
<path d="M4530 9334 c-14 -3 -81 -16 -150 -30 -145 -28 -266 -68 -399 -130
-115 -54 -261 -137 -303 -172 -18 -15 -29 -20 -24 -12 4 8 -1 5 -11 -8 -10
-13 -27 -24 -36 -26 -27 -4 -158 -116 -151 -128 4 -7 2 -8 -5 -4 -20 13 -309
-284 -296 -304 3 -5 0 -12 -6 -16 -8 -5 -10 -2 -5 7 8 15 -1 4 -77 -92 -54
-69 -200 -287 -246 -369 -103 -182 -192 -391 -271 -635 -23 -71 -49 -136 -58
-142 -8 -7 -37 -13 -63 -13 -27 0 -51 -6 -58 -14 -18 -22 -68 -229 -95 -396
-36 -220 -61 -487 -48 -515 13 -29 105 -51 266 -65 66 -6 122 -12 124 -14 6
-7 -14 -39 -36 -59 -11 -10 -67 -30 -124 -44 -106 -26 -271 -98 -342 -150
-206 -151 -341 -367 -407 -653 -33 -144 -27 -369 16 -583 24 -118 94 -371 110
-397 4 -6 -14 -30 -39 -54 -29 -26 -46 -51 -46 -65 0 -27 77 -209 126 -297 52
-93 59 -98 171 -103 30 -1 32 -3 43 -58 38 -194 111 -446 142 -493 7 -12 8
-10 3 5 -7 21 -11 38 -45 195 -31 138 -60 303 -57 315 2 6 9 -21 17 -60 11
-63 32 -150 74 -305 31 -118 78 -249 118 -330 23 -47 44 -87 47 -90 4 -3 16
-25 29 -50 12 -25 38 -63 57 -85 52 -60 135 -146 135 -139 0 2 10 -4 22 -16
12 -11 27 -20 33 -20 7 0 27 -15 46 -33 19 -19 54 -48 79 -66 25 -17 70 -49
100 -71 84 -61 180 -96 337 -124 164 -30 272 -35 133 -7 -96 20 -234 60 -228
67 3 2 56 -9 119 -26 63 -16 141 -32 174 -35 33 -3 111 -10 174 -16 124 -12
266 1 308 29 12 7 31 11 42 7 10 -3 22 -1 26 5 3 5 14 10 23 10 9 0 30 7 46
15 15 8 34 15 42 15 45 0 237 76 415 165 l206 102 49 -74 c114 -175 352 -310
590 -338 50 -5 67 -12 90 -36 15 -16 23 -29 17 -29 -5 0 -15 -11 -21 -25 -7
-14 -22 -29 -34 -34 -13 -5 -97 -80 -186 -167 -172 -166 -173 -167 -147 -226
8 -21 -64 -70 -224 -152 -261 -133 -485 -203 -986 -311 -113 -24 -382 -54
-634 -70 -246 -16 -696 -23 -708 -11 -4 4 -8 43 -9 86 -7 289 -139 363 -691
390 -469 23 -706 -25 -835 -169 -117 -130 -141 -489 -44 -655 115 -196 496
-286 1048 -246 254 18 381 61 436 148 31 47 62 167 62 235 0 65 -7 64 333 71
627 14 895 46 1387 166 134 33 357 100 415 125 22 9 60 23 85 32 105 36 290
132 408 211 40 27 55 33 64 24 25 -25 59 -8 214 106 205 151 214 158 214 171
0 7 16 21 35 32 19 11 37 28 40 38 3 9 19 22 36 28 17 7 33 21 36 32 6 24 -3
23 184 21 80 -1 184 4 230 10 92 13 278 61 349 91 25 10 101 32 169 49 68 17
143 40 167 50 23 11 46 20 50 20 15 0 211 104 277 146 84 54 151 117 227 209
133 163 213 313 291 545 44 132 139 486 139 519 0 7 13 30 28 50 31 40 117
182 151 248 36 71 28 95 -47 155 l-21 17 40 93 c54 122 152 418 180 538 27
119 37 356 20 485 -28 216 -109 431 -215 572 -101 134 -243 244 -388 299 -66
25 -125 75 -112 95 3 5 24 9 47 9 85 1 285 38 329 61 10 5 20 20 23 32 12 46
-42 430 -91 647 -29 129 -78 299 -94 330 -16 31 -37 37 -145 46 -78 7 -91 10
-59 14 l41 5 -47 126 c-26 70 -55 144 -65 165 -49 106 -126 254 -153 299 -17
28 -39 64 -48 80 -42 75 -137 185 -175 202 -24 10 -39 24 -39 35 0 25 -31 39
-66 28 l-29 -8 28 -1 c18 -1 27 -6 24 -13 -5 -16 -53 -13 -73 3 -12 10 -12 14
-2 21 9 6 5 7 -10 3 -13 -4 -29 -1 -37 5 -8 6 -19 9 -26 5 -8 -5 -9 -1 -4 15
6 20 4 22 -15 17 -12 -3 -30 -1 -40 5 -19 12 -55 4 -45 -11 3 -5 1 -12 -5 -16
-6 -3 -13 1 -16 9 -3 9 -12 16 -19 16 -21 0 -30 21 -14 31 9 5 -5 6 -34 3 -31
-5 -56 -2 -71 6 -17 8 -29 9 -42 2 -15 -8 -25 -6 -43 9 -13 10 -28 16 -34 12
-16 -9 -69 -5 -81 7 -6 6 -22 10 -36 10 -14 0 -31 5 -38 12 -8 8 -15 8 -27 -2
-13 -11 -15 -9 -15 11 0 17 -3 20 -11 12 -8 -8 -40 17 -118 94 -206 204 -349
320 -518 419 -296 174 -553 251 -873 259 -80 2 -156 1 -170 -1z m-930 -388 c0
-2 -21 -20 -47 -41 l-48 -37 45 41 c45 41 50 45 50 37z m-100 -80 c0 -2 -8
-10 -17 -17 -16 -13 -17 -12 -4 4 13 16 21 21 21 13z m-100 -89 c0 -1 -26 -27
-57 -57 l-58 -55 55 58 c50 53 60 62 60 54z m1870 -213 c311 -71 744 -455
1087 -966 58 -87 114 -165 124 -173 16 -15 16 -20 2 -52 -14 -35 -13 -41 21
-142 65 -194 115 -431 131 -626 5 -62 3 -88 -9 -117 -39 -92 -11 -200 74 -292
l58 -62 -36 -30 c-54 -45 -56 -45 -102 -29 -24 8 -45 13 -48 10 -3 -3 -10 -1
-16 4 -18 14 -235 51 -311 53 -98 3 -339 -19 -407 -37 -308 -83 -584 -299
-751 -590 -36 -63 -159 -335 -211 -470 l-8 -20 -8 20 c-4 11 -22 65 -40 120
-109 337 -190 488 -345 645 -45 47 -103 92 -149 119 -82 46 -248 121 -270 121
-7 0 -33 7 -57 15 -86 31 -315 73 -424 78 l-49 2 -23 110 c-13 61 -24 154 -26
210 l-2 100 33 0 c18 1 37 7 43 15 13 20 7 51 -11 60 -94 45 -95 47 -92 97 1
26 18 108 37 182 19 74 35 143 35 152 0 11 -11 20 -30 24 -43 9 -45 20 -12 67
27 41 55 90 167 288 168 298 431 618 650 791 142 113 409 259 563 308 129 42
272 47 412 15z m1070 -69 c0 -8 -6 -15 -12 -15 -7 0 -24 -3 -37 -7 -17 -4 -22
-3 -17 5 4 7 16 12 27 12 10 0 19 5 19 10 0 6 5 10 10 10 6 0 10 -7 10 -15z
m45 -24 c3 -5 1 -12 -5 -16 -5 -3 -10 1 -10 9 0 18 6 21 15 7z m595 -112 c0
-5 -4 -9 -10 -9 -5 0 -10 7 -10 16 0 8 5 12 10 9 6 -3 10 -10 10 -16z m427
-905 c-3 -3 -12 -4 -19 -1 -8 3 -5 6 6 6 11 1 17 -2 13 -5z m-3983 -1215 c9
-47 16 -88 16 -91 0 -4 -24 -9 -52 -13 -29 -3 -88 -13 -131 -22 -73 -15 -81
-15 -137 2 -62 19 -127 72 -117 97 4 12 29 12 153 2 82 -7 161 -13 176 -13 33
-1 47 21 55 90 3 27 9 46 14 42 4 -4 14 -47 23 -94z m3636 74 c12 -11 -29 -59
-60 -69 -77 -25 -126 -42 -141 -48 -21 -9 -113 63 -134 105 l-16 30 173 -7
c95 -4 175 -9 178 -11z m-536 -398 c-10 -8 -25 -15 -32 -15 -30 0 -200 -63
-270 -99 -59 -31 -70 -34 -47 -15 71 59 270 143 339 144 28 0 29 -1 10 -15z
m-4025 -152 c-11 -13 -11 -17 -1 -20 20 -7 13 -26 -23 -63 -19 -19 -35 -38
-35 -43 0 -5 -13 -26 -29 -46 -16 -20 -38 -54 -50 -76 -27 -50 -27 -22 -1 45
11 28 18 56 15 60 -8 13 22 57 76 113 45 45 77 66 48 30z m5232 -203 c133
-142 200 -335 198 -577 -1 -166 -9 -189 -37 -103 -12 36 -26 93 -32 127 -27
154 -102 302 -214 421 l-50 53 34 65 c19 35 39 64 44 64 6 0 31 -22 57 -50z
m-5481 -34 c-16 -35 -37 -93 -46 -128 -9 -35 -31 -94 -49 -133 -72 -151 -108
-365 -103 -605 2 -82 0 -150 -3 -150 -4 0 -10 35 -15 78 l-8 77 -9 -65 -10
-65 -14 45 c-29 97 -46 262 -40 390 11 215 53 332 180 499 38 49 119 121 138
121 4 0 -5 -29 -21 -64z m868 -3031 c4 -4 -11 0 -33 9 -22 10 -44 22 -50 27
-5 6 9 2 33 -9 23 -10 46 -22 50 -27z m2768 -97 c4 -7 3 -8 -4 -4 -7 4 -12 2
-12 -3 0 -6 -5 -11 -11 -11 -8 0 -8 5 1 15 15 18 17 18 26 3z m1050 -17 c-9
-15 -101 -31 -164 -30 -52 1 -48 3 42 15 55 7 104 15 110 18 17 7 18 7 12 -3z
m-1546 -21 c0 -5 -2 -10 -4 -10 -3 0 -8 5 -11 10 -3 6 -1 10 4 10 6 0 11 -4
11 -10z m323 -17 c-7 -2 -19 -2 -25 0 -7 3 -2 5 12 5 14 0 19 -2 13 -5z m197
-7 c0 -2 -8 -10 -17 -17 -16 -13 -17 -12 -4 4 13 16 21 21 21 13z m-280 -51
c14 -19 14 -19 -2 -6 -10 7 -18 18 -18 24 0 6 1 8 3 6 1 -2 9 -13 17 -24z
m-69 -67 c15 -28 5 -21 -21 15 -15 20 -17 27 -6 18 9 -8 22 -23 27 -33z m133
-4 c3 -8 2 -12 -4 -9 -6 3 -10 10 -10 16 0 14 7 11 14 -7z m-164 -9 c20 -24 6
-28 -15 -5 -10 11 -13 20 -8 20 6 0 16 -7 23 -15z m-42 -61 c-4 -3 -12 5 -18
18 -12 22 -12 22 6 6 10 -10 15 -20 12 -24z m53 -51 c13 -16 12 -17 -3 -4 -17
13 -22 21 -14 21 2 0 10 -8 17 -17z"/>
<path d="M8740 4353 c0 -109 -3 -222 -6 -250 l-7 -53 -88 0 -89 0 0 -805 0
-806 25 -25 25 -25 341 3 c324 3 341 4 355 22 12 17 14 146 14 828 l0 808 -82
1 c-46 1 -89 1 -95 0 -10 -2 -13 54 -13 249 l0 250 -90 0 c-79 0 -90 -2 -89
-17 0 -11 3 -13 6 -5 7 19 51 14 73 -8 16 -16 20 -17 20 -5 0 8 5 15 10 15 12
0 12 -2 0 -34 -8 -23 -7 -26 10 -26 13 0 20 -7 20 -20 0 -11 -7 -20 -15 -20
-8 0 -15 -7 -15 -16 0 -8 5 -12 10 -9 15 9 30 -4 23 -20 -3 -10 -19 -15 -44
-15 -38 0 -39 -1 -39 -35 0 -34 1 -35 40 -35 36 0 40 3 40 24 0 14 5 28 11 31
7 5 9 -6 7 -31 l-3 -39 -49 -3 c-32 -2 -52 1 -57 10 -13 20 -11 72 4 87 10 11
9 12 -7 4 -21 -11 -31 -83 -12 -83 6 0 4 -5 -4 -10 -13 -8 -12 -10 3 -10 9 0
17 -4 17 -10 0 -5 -6 -7 -13 -4 -14 5 -18 -13 -19 -81 0 -31 -2 -35 -8 -20 -6
14 -9 0 -9 -42 -1 -34 -5 -65 -11 -68 -6 -4 -10 7 -10 24 0 17 -4 31 -9 31 -5
0 -8 -11 -5 -25 3 -19 0 -25 -13 -25 -12 0 -14 3 -6 8 8 5 9 13 3 22 -6 9 -10
10 -10 3 0 -8 -9 -9 -30 -3 -20 6 -28 5 -24 -2 4 -6 -1 -8 -12 -6 -10 2 -20
12 -22 23 -3 17 -1 18 8 5 9 -12 10 -11 5 8 -4 13 -2 29 5 37 9 10 7 15 -9 20
-24 7 -28 30 -6 39 9 3 15 0 15 -8 0 -9 7 -12 21 -9 15 4 20 12 16 29 -2 13
-1 23 2 22 23 -2 32 4 27 17 -3 9 1 18 9 21 8 4 13 10 10 14 -3 5 -19 2 -35
-6 -44 -23 -83 -15 -94 19 -8 20 -7 34 3 49 11 18 11 20 -4 15 -13 -6 -15 -3
-9 16 4 12 8 42 9 67 1 39 4 45 23 44 16 0 19 3 11 12 -7 8 -6 14 2 20 8 4 9
3 5 -4 -4 -7 -1 -12 8 -12 8 0 18 4 21 10 3 5 21 9 40 7 18 -1 31 -5 29 -8 -2
-4 2 -9 10 -12 10 -4 12 0 9 14 -5 17 -15 19 -94 19 l-89 0 0 -197z m360 137
c0 -5 -5 -10 -11 -10 -5 0 -7 5 -4 10 3 6 8 10 11 10 2 0 4 -4 4 -10z m-35
-229 c6 -1 3 -6 -5 -11 -10 -6 -11 -10 -2 -10 6 0 12 -4 12 -9 0 -6 -9 -8 -21
-6 -15 3 -18 1 -11 -8 5 -7 9 -32 7 -57 -1 -25 2 -50 7 -57 7 -8 4 -11 -11
-10 -15 1 -19 6 -15 19 7 22 -2 23 -23 2 -14 -13 -14 -17 -2 -25 11 -7 11 -9
1 -9 -7 0 -20 7 -28 15 -14 13 -14 15 0 15 9 0 16 5 16 10 0 6 -4 10 -10 10
-5 0 -10 5 -10 11 0 6 9 8 23 3 l22 -6 -23 20 c-18 16 -20 21 -7 26 9 3 15 0
15 -9 0 -9 6 -12 17 -8 14 5 12 10 -10 29 -29 25 -34 43 -16 61 10 10 22 11
74 4z m-277 -104 c14 5 15 3 5 -8 -7 -7 -13 -23 -13 -35 0 -29 -10 -54 -21
-54 -11 0 -12 50 -2 105 7 34 8 36 11 13 2 -20 7 -25 20 -21z m7 -87 c3 -5 1
-10 -4 -10 -6 0 -11 5 -11 10 0 6 2 10 4 10 3 0 8 -4 11 -10z"/>
<path d="M9025 4200 c-3 -5 -1 -10 4 -10 6 0 11 5 11 10 0 6 -2 10 -4 10 -3 0
-8 -4 -11 -10z"/>
<path d="M9025 4140 c3 -5 8 -10 11 -10 2 0 4 5 4 10 0 6 -5 10 -11 10 -5 0
-7 -4 -4 -10z"/>
<path d="M8900 4500 c0 -5 5 -10 11 -10 5 0 7 5 4 10 -3 6 -8 10 -11 10 -2 0
-4 -4 -4 -10z"/>
<path d="M8900 4429 c0 -5 5 -7 10 -4 6 3 10 8 10 11 0 2 -4 4 -10 4 -5 0 -10
-5 -10 -11z"/>
<path d="M8938 4332 c4 -102 3 -105 -17 -99 -19 5 -21 1 -21 -39 0 -37 3 -42
17 -37 11 4 12 8 5 11 -16 5 -15 22 2 22 7 0 17 15 21 33 11 50 11 193 0 204
-7 6 -9 -26 -7 -95z"/>
<path d="M8808 4389 c-21 -16 -28 -29 -28 -55 0 -33 1 -34 40 -34 38 0 40 2
40 30 0 17 5 30 10 30 6 0 10 5 10 10 0 6 -4 9 -9 8 -5 -2 -16 5 -23 14 -12
16 -15 16 -40 -3z m35 -16 c-7 -2 -21 -2 -30 0 -10 3 -4 5 12 5 17 0 24 -2 18
-5z"/>
<path d="M8911 4384 c0 -11 3 -14 6 -6 3 7 2 16 -1 19 -3 4 -6 -2 -5 -13z"/>
<path d="M9010 4388 c0 -4 14 -8 30 -8 17 0 30 3 30 8 0 4 -13 7 -30 7 -16 1
-30 -3 -30 -7z"/>
<path d="M8909 4323 c-1 -5 -2 -12 -4 -18 -1 -5 -3 -16 -3 -23 -1 -7 -6 -10
-12 -7 -5 3 -7 0 -4 -8 2 -7 11 -14 19 -14 11 0 15 12 15 39 0 21 -2 38 -5 38
-3 0 -6 -3 -6 -7z"/>
<path d="M8870 4215 c0 -16 -6 -25 -15 -25 -8 0 -15 -7 -15 -16 0 -13 3 -14
13 -5 8 6 17 8 20 4 4 -3 7 10 7 30 0 21 -2 37 -5 37 -3 0 -5 -11 -5 -25z"/>
</g>
</svg>
