<?xml version="1.0" standalone="no"?>
<!DOCTYPE svg PUBLIC "-//W3C//DTD SVG 20010904//EN"
 "http://www.w3.org/TR/2001/REC-SVG-20010904/DTD/svg10.dtd">
<svg version="1.0" xmlns="http://www.w3.org/2000/svg"
 width="134.000000pt" height="34.000000pt" viewBox="0 0 134.000000 34.000000"
 preserveAspectRatio="xMidYMid meet">

<g transform="translate(0.000000,34.000000) scale(0.100000,-0.100000)"
fill="#000000" stroke="none">
<path d="M264 330 c70 -9 146 -36 146 -52 0 -12 -63 -10 -115 4 -38 10 -52 9
-94 -6 -33 -11 -61 -15 -85 -11 -44 9 -45 17 -3 38 17 8 28 16 22 16 -22 1
-91 -47 -112 -78 -61 -90 10 -204 145 -232 149 -31 298 33 318 136 19 102 -73
182 -218 190 l-73 4 69 -9z m47 -64 c32 -10 59 -12 85 -6 44 10 49 8 69 -30
l15 -29 -54 -17 -54 -17 -48 41 c-49 44 -77 51 -108 27 -38 -29 -53 -16 -18
15 37 34 48 35 113 16z m-180 -12 c30 -5 36 -10 32 -25 -4 -15 0 -19 20 -19
13 0 30 7 37 15 21 26 54 17 108 -31 37 -33 50 -50 43 -57 -8 -8 -19 -3 -38
14 l-28 24 23 -26 c26 -29 14 -51 -15 -27 -14 11 -15 10 -9 -10 8 -24 -3 -29
-23 -9 -10 10 -11 9 -6 -5 4 -11 2 -18 -4 -18 -6 0 -11 5 -11 10 0 6 -8 5 -20
-2 -17 -11 -22 -10 -29 0 -4 8 -12 14 -17 14 -23 2 -44 11 -44 19 0 5 -7 9
-15 9 -8 0 -15 7 -15 16 0 11 6 15 20 11 11 -3 17 -1 14 4 -3 6 -13 9 -22 8
-18 -3 -102 20 -114 30 -4 4 2 21 13 40 16 26 25 32 42 27 12 -3 38 -9 58 -12z
m334 -123 c-48 -94 -239 -131 -362 -70 -68 34 -121 119 -74 119 31 0 81 -21
81 -35 0 -7 19 -25 43 -41 60 -42 135 -41 194 1 23 17 44 37 46 46 3 9 22 21
43 26 46 11 53 0 29 -46z"/>
<path d="M175 150 c3 -5 15 -10 25 -10 10 0 21 -6 23 -12 4 -10 6 -10 6 0 1 7
-11 17 -25 22 -32 13 -37 12 -29 0z"/>
<path d="M158 323 c6 -2 18 -2 25 0 6 3 1 5 -13 5 -14 0 -19 -2 -12 -5z"/>
<path d="M1200 309 c0 -16 -5 -20 -19 -16 -45 11 -82 -58 -49 -91 15 -15 61
-15 76 0 14 14 16 128 2 128 -5 0 -10 -10 -10 -21z m-7 -51 c7 -23 -5 -48 -24
-48 -14 0 -19 7 -19 30 0 23 5 30 19 30 11 0 21 -6 24 -12z"/>
<path d="M586 288 c-18 -10 -23 -98 -6 -98 6 0 10 18 10 41 0 33 3 40 18 37
12 -2 18 -14 20 -41 2 -20 7 -37 12 -37 5 0 10 17 12 37 2 27 8 39 21 41 14 3
17 -4 17 -37 0 -23 5 -41 10 -41 14 0 13 87 -1 96 -18 10 -95 12 -113 2z"/>
<path d="M752 284 c-25 -18 -30 -65 -8 -83 18 -15 68 -11 73 6 3 7 -7 10 -24
10 -43 -3 -43 18 0 21 42 4 46 13 17 42 -24 24 -29 24 -58 4z m48 -25 c0 -5
-12 -9 -26 -9 -22 0 -24 2 -14 14 12 15 40 11 40 -5z"/>
<path d="M932 284 c-24 -17 -30 -62 -10 -82 17 -17 67 -15 75 3 3 9 2 19 -2
23 -4 4 -10 1 -12 -5 -3 -7 -14 -13 -24 -13 -17 0 -20 6 -17 33 2 22 7 31 18
28 57 -14 56 -14 31 8 -28 25 -30 25 -59 5z"/>
<path d="M1048 293 c-21 -5 -32 -33 -13 -33 7 0 17 5 20 10 9 15 25 12 25 -4
0 -9 -12 -16 -27 -18 -22 -2 -28 -8 -28 -28 0 -20 6 -26 28 -28 38 -5 57 14
57 54 0 23 -6 37 -19 44 -11 5 -21 9 -23 9 -2 -1 -10 -3 -20 -6z m36 -68 c-4
-8 -15 -15 -25 -15 -21 0 -26 16 -6 23 24 10 36 7 31 -8z"/>
<path d="M1252 284 c-40 -28 -22 -94 26 -94 37 0 52 17 52 57 0 22 -6 36 -19
43 -26 13 -33 13 -59 -6z m56 -48 c-2 -13 -12 -22 -25 -24 -20 -3 -23 1 -23
26 0 17 6 32 13 35 19 7 38 -14 35 -37z"/>
<path d="M850 271 c-16 -30 -13 -81 5 -81 11 0 15 11 15 35 0 22 6 38 15 41
22 9 18 24 -5 24 -10 0 -24 -9 -30 -19z"/>
<path d="M570 100 c0 -40 4 -70 10 -70 6 0 10 30 10 70 0 40 -4 70 -10 70 -6
0 -10 -30 -10 -70z"/>
<path d="M610 155 c0 -8 7 -15 15 -15 8 0 15 7 15 15 0 8 -7 15 -15 15 -8 0
-15 -7 -15 -15z"/>
<path d="M842 124 c-25 -18 -30 -65 -8 -83 18 -15 68 -11 73 6 3 7 -7 10 -24
10 -43 -3 -43 18 0 21 42 4 46 13 17 42 -24 24 -29 24 -58 4z m48 -24 c0 -5
-12 -10 -26 -10 -14 0 -23 4 -19 10 3 6 15 10 26 10 10 0 19 -4 19 -10z"/>
<path d="M610 80 c0 -38 4 -50 15 -50 11 0 15 12 15 50 0 38 -4 50 -15 50 -11
0 -15 -12 -15 -50z"/>
<path d="M668 80 c20 -63 40 -62 64 3 15 41 16 47 3 47 -9 0 -18 -13 -21 -30
-4 -16 -10 -30 -14 -30 -5 0 -11 13 -15 30 -4 17 -13 30 -20 30 -11 0 -10 -10
3 -50z"/>
<path d="M760 111 c-16 -30 -13 -81 5 -81 11 0 15 11 15 35 0 22 6 38 15 41
22 9 18 24 -5 24 -10 0 -24 -9 -30 -19z"/>
</g>
</svg>
