<?xml version="1.0" standalone="no"?>
<!DOCTYPE svg PUBLIC "-//W3C//DTD SVG 20010904//EN"
 "http://www.w3.org/TR/2001/REC-SVG-20010904/DTD/svg10.dtd">
<svg version="1.0" xmlns="http://www.w3.org/2000/svg"
 width="1000.000000pt" height="551.000000pt" viewBox="0 0 1000.000000 551.000000"
 preserveAspectRatio="xMidYMid meet">

<g transform="translate(0.000000,551.000000) scale(0.100000,-0.100000)"
fill="#000000" stroke="none">
<path d="M3715 5464 c-417 -26 -782 -73 -1208 -155 -82 -16 -167 -33 -190 -39
-552 -126 -1000 -274 -1522 -505 -342 -151 -445 -266 -445 -498 0 -202 113
-401 330 -581 80 -67 257 -189 373 -259 46 -27 65 -43 54 -45 -25 -5 -21 -17
11 -30 19 -8 20 -10 4 -6 -15 4 -22 1 -20 -7 2 -7 -27 -29 -63 -48 -36 -20
-76 -44 -89 -53 l-24 -18 25 0 c14 0 34 -7 45 -15 10 -8 28 -15 40 -15 11 0
25 -5 31 -11 12 -12 112 -42 208 -63 33 -7 74 -20 90 -30 17 -9 38 -16 47 -16
10 0 41 -9 70 -20 29 -11 68 -20 86 -20 21 0 32 -5 32 -14 0 -9 16 -17 43 -21
67 -10 141 -28 152 -37 5 -4 17 -8 27 -8 10 0 18 -4 18 -8 0 -5 37 -17 83 -26
45 -10 96 -24 112 -31 17 -7 44 -16 60 -18 17 -3 68 -17 115 -32 47 -15 95
-28 107 -29 12 0 25 -4 29 -8 4 -5 15 -8 25 -8 9 0 30 -7 45 -15 16 -8 38 -15
49 -15 10 0 82 -20 160 -44 77 -25 166 -50 198 -56 31 -6 57 -16 57 -21 0 -5
18 -9 39 -9 22 0 41 -3 43 -8 2 -4 35 -16 73 -26 39 -10 93 -26 120 -34 28 -8
95 -27 151 -42 55 -15 107 -31 115 -36 8 -5 22 -7 33 -5 10 1 22 -1 25 -6 3
-5 49 -19 101 -32 52 -12 106 -29 119 -38 13 -8 35 -13 49 -10 14 3 41 -3 61
-13 20 -10 63 -24 96 -30 33 -7 76 -18 95 -25 19 -7 62 -19 95 -26 33 -7 69
-19 80 -26 11 -7 34 -13 52 -13 18 0 50 -7 72 -16 62 -24 86 -13 29 14 -26 12
-56 22 -66 22 -11 0 -22 6 -25 13 -4 11 5 11 46 -1 29 -8 82 -20 119 -26 36
-6 70 -14 74 -18 4 -5 17 -8 30 -8 12 0 24 -7 28 -15 3 -8 14 -15 25 -15 11 0
26 -8 33 -18 17 -24 51 -42 80 -42 13 0 61 -9 108 -19 47 -11 117 -25 155 -31
39 -7 113 -20 165 -30 52 -10 136 -23 185 -30 50 -6 110 -15 135 -20 25 -5 99
-14 165 -20 66 -6 138 -15 160 -20 76 -18 323 -25 770 -23 395 1 518 5 790 27
33 3 123 10 200 16 182 15 448 48 481 60 14 6 37 10 51 10 15 0 40 4 57 10 17
5 75 19 129 31 53 13 97 26 97 31 0 4 15 8 34 8 19 0 37 4 41 9 3 5 19 12 36
16 18 4 35 16 41 31 6 13 19 24 29 24 9 0 37 11 60 25 24 14 52 25 62 25 9 0
17 5 17 11 0 6 6 9 14 6 20 -8 27 3 13 17 -7 7 -38 28 -69 46 -57 34 -67 47
-49 66 6 5 13 31 18 58 l8 48 66 24 c92 33 260 117 333 166 104 71 145 106
227 189 82 83 108 119 89 119 -5 0 -10 -6 -10 -13 0 -16 -59 -61 -68 -52 -4 3
4 15 18 25 34 26 21 25 -37 -4 -87 -44 -494 -155 -625 -171 -42 -5 -48 -9 -48
-29 0 -13 -6 -28 -12 -33 -11 -8 -598 -104 -635 -103 -7 0 -13 11 -13 23 0 33
-6 36 -49 26 -102 -23 -579 -58 -786 -58 -235 0 -690 31 -844 59 -155 27 -331
62 -376 75 -27 8 -99 26 -160 41 -60 15 -128 32 -150 39 -22 7 -76 22 -120 35
-335 93 -828 302 -1158 490 -45 25 -116 65 -157 87 -41 22 -158 86 -260 143
-580 324 -1170 592 -1515 690 -269 76 -668 130 -971 130 -234 0 -635 -95 -784
-185 -80 -49 -130 -74 -130 -65 0 6 4 10 8 10 4 0 19 30 32 66 28 74 57 100
147 130 27 9 50 19 53 23 3 4 16 12 30 19 24 12 23 12 -13 8 -20 -3 -37 -3
-37 -1 0 5 157 65 170 65 24 0 7 -19 -23 -25 -57 -12 -67 -16 -67 -31 0 -8 5
-14 10 -14 6 0 10 5 10 10 0 6 8 10 18 10 10 0 22 3 26 8 4 4 11 7 14 8 4 0
14 3 22 7 8 3 29 8 45 12 17 3 46 10 65 15 l35 9 -40 -4 c-22 -3 -52 -7 -67
-11 -16 -3 -28 -2 -28 3 0 12 193 60 319 78 362 52 1111 -40 1386 -170 37 -18
193 -78 302 -116 45 -16 95 -29 112 -29 17 0 31 -4 31 -10 0 -5 8 -10 18 -10
19 0 207 -79 372 -156 96 -44 392 -193 755 -378 162 -83 477 -231 650 -306 66
-29 134 -58 150 -65 17 -7 68 -28 115 -46 47 -17 99 -38 115 -45 80 -34 378
-112 640 -169 44 -9 107 -23 140 -31 33 -7 87 -18 120 -23 33 -6 101 -17 150
-25 253 -42 317 -46 681 -46 453 0 833 29 1109 85 39 8 106 20 150 26 86 12
105 21 105 50 0 18 2 18 44 -3 l44 -21 258 37 c356 51 580 103 697 163 96 48
207 184 207 252 0 36 -32 205 -40 211 -4 3 -11 16 -15 30 -9 30 -46 93 -51 87
-2 -2 8 -25 22 -52 22 -39 24 -49 13 -56 -23 -14 -33 -10 -64 31 -22 29 -37
39 -58 40 -28 0 -87 49 -87 71 0 5 -7 9 -15 9 -21 0 -95 48 -102 65 -3 8 -14
15 -24 15 -10 0 -19 5 -19 10 0 6 -18 10 -40 10 -22 0 -40 5 -40 10 0 6 -18
10 -40 10 -33 0 -40 3 -40 20 0 11 -5 20 -12 20 -7 0 -22 12 -35 28 -18 22
-24 24 -32 13 -8 -12 -15 -11 -45 10 -20 13 -36 30 -36 37 0 7 -15 12 -39 12
-31 0 -44 6 -64 30 -14 17 -33 30 -41 30 -9 0 -16 9 -16 20 0 17 -7 20 -38 20
-26 0 -45 7 -57 20 -10 11 -29 20 -42 20 -20 0 -23 5 -23 40 0 36 -2 40 -25
40 -22 0 -25 4 -25 40 0 38 2 40 31 40 20 0 28 4 23 12 -5 7 -3 8 7 3 7 -5 43
-10 79 -11 l65 -2 -77 37 c-42 20 -89 42 -105 49 -74 36 -500 210 -528 216 -5
2 -21 8 -35 14 -38 17 -183 69 -300 108 -58 20 -114 39 -125 44 -17 8 -86 30
-380 120 -33 10 -96 28 -140 40 -44 13 -109 31 -145 41 -71 20 -417 105 -490
119 -423 88 -596 118 -885 155 -124 16 -234 19 -135 4 30 -5 118 -25 195 -45
77 -19 150 -38 163 -41 22 -5 26 -19 22 -73 -2 -33 -38 -62 -62 -49 -9 5 -43
9 -75 9 -32 0 -74 5 -93 10 -19 5 -84 23 -145 40 -143 41 -164 47 -200 57 -29
9 -42 31 -32 57 6 15 26 12 228 -36 104 -24 129 -34 137 -51 9 -21 10 -21 18
-3 13 32 -19 49 -175 96 -49 15 -69 25 -60 31 7 4 11 10 9 13 -7 6 -237 25
-460 36 -258 13 -704 10 -965 -6z m4315 -784 c0 -5 -7 -7 -15 -4 -8 4 -15 8
-15 10 0 2 7 4 15 4 8 0 15 -4 15 -10z m-10 -24 c0 -3 -4 -8 -10 -11 -5 -3
-10 -1 -10 4 0 6 5 11 10 11 6 0 10 -2 10 -4z m53 -3 c-7 -2 -19 -2 -25 0 -7
3 -2 5 12 5 14 0 19 -2 13 -5z m98 -30 c13 -17 13 -17 -6 -3 -11 8 -22 16 -24
17 -2 2 0 3 6 3 6 0 17 -8 24 -17z m69 -33 c0 -5 -4 -10 -10 -10 -5 0 -10 5
-10 10 0 6 5 10 10 10 6 0 10 -4 10 -10z m60 -24 c0 -2 -9 -6 -20 -9 -11 -3
-18 -1 -14 4 5 9 34 13 34 5z m130 -50 c0 -2 -7 -6 -15 -10 -8 -3 -15 -1 -15
4 0 6 7 10 15 10 8 0 15 -2 15 -4z m40 -16 c12 -8 11 -10 -7 -10 -13 0 -23 5
-23 10 0 13 11 13 30 0z m-7904 -95 c-11 -8 -29 -15 -40 -15 -17 1 -15 4 9 15
40 18 55 18 31 0z m-106 -54 c0 -5 -9 -11 -21 -14 -16 -4 -18 -3 -8 9 13 16
29 19 29 5z m770 -1117 c0 -8 7 -14 15 -14 8 0 15 -6 15 -14 0 -10 -9 -14 -27
-13 -16 1 -28 8 -27 15 1 6 2 21 3 33 1 22 21 17 21 -7z m128 -49 c4 -4 -4 -5
-18 -2 -14 4 -35 7 -47 7 -13 0 -23 4 -23 9 0 10 77 -3 88 -14z m132 -25 c13
-8 13 -10 -2 -10 -9 0 -20 5 -23 10 -8 13 5 13 25 0z m187 -56 c-3 -3 -12 -4
-19 -1 -8 3 -5 6 6 6 11 1 17 -2 13 -5z m2526 -781 c-7 -2 -21 -2 -30 0 -10 3
-4 5 12 5 17 0 24 -2 18 -5z"/>
<path d="M8570 4450 c10 -6 11 -10 3 -10 -7 0 -13 -5 -13 -11 0 -7 12 -8 33
-4 24 5 28 4 17 -4 -12 -9 -11 -11 8 -11 13 0 21 -4 18 -8 -3 -5 3 -8 12 -8
54 0 72 -5 72 -19 0 -8 7 -15 15 -15 8 0 24 -9 36 -21 11 -11 37 -23 57 -25
l37 -4 -30 18 c-16 10 -46 26 -65 36 -19 9 -69 35 -110 56 -41 22 -82 40 -90
40 -13 0 -13 -1 0 -10z"/>
<path d="M8570 4400 c8 -5 20 -10 25 -10 6 0 3 5 -5 10 -8 5 -19 10 -25 10 -5
0 -3 -5 5 -10z"/>
<path d="M8882 4289 c2 -6 14 -16 26 -20 29 -11 28 -5 -4 16 -17 11 -25 12
-22 4z"/>
<path d="M8885 4250 c3 -5 11 -10 16 -10 6 0 7 5 4 10 -3 6 -11 10 -16 10 -6
0 -7 -4 -4 -10z"/>
<path d="M8936 4244 c-3 -8 1 -14 9 -14 9 0 16 -10 16 -22 1 -21 2 -21 6 -3 3
11 9 23 14 26 5 3 -1 11 -15 17 -19 9 -25 8 -30 -4z"/>
<path d="M8995 4210 c3 -5 14 -10 23 -10 15 0 15 2 2 10 -20 13 -33 13 -25 0z"/>
<path d="M9040 4191 c0 -6 12 -18 28 -28 15 -9 47 -33 72 -53 25 -20 52 -40
60 -44 8 -5 -1 5 -20 20 -19 16 -42 36 -50 44 -33 32 -90 71 -90 61z"/>
<path d="M9028 4153 c7 -3 16 -2 19 1 4 3 -2 6 -13 5 -11 0 -14 -3 -6 -6z"/>
<path d="M3356 4046 c3 -8 15 -17 27 -20 33 -8 32 1 -2 18 -25 13 -29 14 -25
2z"/>
<path d="M9220 4042 c0 -12 19 -26 26 -19 2 2 -2 10 -11 17 -9 8 -15 8 -15 2z"/>
<path d="M3431 4005 c6 -5 89 -50 141 -77 20 -10 126 -67 236 -127 109 -60
209 -112 223 -116 21 -7 22 -6 11 8 -8 9 -24 19 -35 23 -12 4 -37 18 -54 32
-18 13 -33 22 -33 18 0 -3 -18 5 -40 19 -22 14 -42 25 -46 25 -3 0 -19 9 -35
20 -68 49 -399 206 -368 175z"/>
<path d="M9260 3996 c0 -2 7 -7 16 -10 8 -3 12 -2 9 4 -6 10 -25 14 -25 6z"/>
<path d="M9305 3950 c3 -5 8 -10 11 -10 2 0 4 5 4 10 0 6 -5 10 -11 10 -5 0
-7 -4 -4 -10z"/>
</g>
</svg>
