<?xml version="1.0" standalone="no"?>
<!DOCTYPE svg PUBLIC "-//W3C//DTD SVG 20010904//EN"
 "http://www.w3.org/TR/2001/REC-SVG-20010904/DTD/svg10.dtd">
<svg version="1.0" xmlns="http://www.w3.org/2000/svg"
 width="1000.000000pt" height="1000.000000pt" viewBox="0 0 1000.000000 1000.000000"
 preserveAspectRatio="xMidYMid meet">

<g transform="translate(0.000000,1000.000000) scale(0.100000,-0.100000)"
fill="#000000" stroke="none">
<path d="M5097 6704 c-1 -1 -749 -4 -1662 -8 -913 -3 -1808 -7 -1990 -8 -181
-2 53 -5 520 -8 l850 -5 -925 -3 c-509 -1 -953 -5 -988 -7 -34 -2 -79 -12 -98
-21 -47 -23 -90 -83 -98 -138 -7 -46 -20 -55 -76 -56 -55 -1 -90 -53 -90 -135
0 -41 -3 -56 -12 -53 -7 3 -15 17 -16 33 -2 16 -11 35 -20 41 -14 10 -18 38
-22 167 -3 86 -8 159 -13 163 -19 19 -26 -22 -29 -164 -3 -134 -5 -155 -21
-167 -15 -11 -17 -26 -15 -101 l3 -89 73 -3 72 -3 0 -158 c0 -87 5 -172 11
-189 13 -38 67 -72 115 -72 l34 0 0 -1057 c0 -1005 1 -1060 19 -1098 22 -50
70 -91 119 -104 24 -7 1461 -11 4184 -11 3862 -1 4149 0 4180 16 75 37 108 87
118 179 l7 60 2 -53 c2 -90 -52 -173 -134 -208 -37 -16 -313 -17 -4193 -16
-4244 1 -4193 0 -4243 36 -8 6 -3 -1 13 -16 61 -60 -245 -56 4278 -55 l4145 2
45 27 c55 32 81 66 105 137 17 52 18 136 19 1495 l1 1441 -27 50 c-14 28 -44
67 -65 87 -76 73 106 67 -2146 70 -1116 2 -2029 2 -2030 2z m-4409 -806 c15
-15 15 -61 0 -76 -7 -7 -24 -12 -38 -12 -33 0 -50 17 -50 52 0 41 59 65 88 36z"/>
<path d="M620 5885 c-7 -8 -10 -25 -6 -40 8 -30 46 -34 67 -8 12 15 12 16 -6
9 -38 -15 -50 -12 -50 14 0 26 12 29 50 14 18 -7 18 -6 6 9 -17 21 -44 22 -61
2z"/>
</g>
</svg>
