<?xml version="1.0" standalone="no"?>
<!DOCTYPE svg PUBLIC "-//W3C//DTD SVG 20010904//EN"
 "http://www.w3.org/TR/2001/REC-SVG-20010904/DTD/svg10.dtd">
<svg version="1.0" xmlns="http://www.w3.org/2000/svg"
 width="1200.000000pt" height="1013.000000pt" viewBox="0 0 1200.000000 1013.000000"
 preserveAspectRatio="xMidYMid meet">

<g transform="translate(0.000000,1013.000000) scale(0.100000,-0.100000)"
fill="#000000" stroke="none">
<path d="M5477 9553 c-87 -73 -116 -111 -279 -363 -92 -144 -228 -391 -228
-416 0 -7 -5 -16 -11 -20 -26 -16 -2 44 104 266 46 96 192 336 235 386 16 18
63 94 58 94 -7 0 -131 -171 -189 -260 -59 -92 -216 -378 -245 -447 -17 -44
-26 -50 -52 -33 -32 20 -55 -35 -25 -60 24 -20 18 -30 -19 -30 -43 0 -55 -25
-26 -55 27 -29 25 -35 -10 -35 -44 0 -58 -32 -25 -58 14 -11 25 -24 25 -30 0
-13 -26 -23 -44 -16 -17 7 -41 -28 -51 -73 -11 -52 13 -57 188 -34 81 10 150
21 154 24 8 9 -17 37 -33 37 -8 0 -14 4 -14 9 0 5 15 8 33 7 26 -1 33 3 35 21
2 14 -4 27 -17 35 -29 18 -26 29 5 26 17 -2 30 4 38 15 9 15 7 22 -11 37 -30
24 -29 28 10 32 42 4 50 39 12 56 -14 7 -24 16 -21 21 4 5 1 11 -6 13 -13 5
42 123 145 310 78 141 159 265 241 373 96 125 101 136 97 198 -2 25 -11 22
-74 -30z m-577 -903 c12 -8 11 -10 -7 -10 -13 0 -23 5 -23 10 0 13 11 13 30 0z
m-33 -96 c-3 -3 -12 -4 -19 -1 -8 3 -5 6 6 6 11 1 17 -2 13 -5z"/>
<path d="M10725 9139 c-27 -5 -99 -15 -160 -23 -449 -60 -593 -79 -840 -111
-154 -20 -343 -44 -420 -55 -77 -11 -210 -29 -295 -40 -297 -40 -376 -51 -470
-65 -52 -8 -178 -26 -280 -40 -553 -75 -641 -86 -710 -95 -41 -6 -174 -23
-295 -40 -358 -48 -960 -128 -1095 -145 -69 -9 -246 -31 -395 -50 -148 -19
-331 -42 -405 -51 -74 -8 -154 -20 -177 -25 -23 -5 -64 -9 -92 -9 -27 0 -52
-4 -55 -9 -3 -4 -31 -11 -63 -14 -173 -18 -353 -39 -487 -57 -167 -23 -259
-35 -611 -80 -132 -17 -301 -39 -375 -50 -74 -10 -261 -35 -415 -55 -279 -35
-1033 -138 -1300 -176 -77 -11 -223 -31 -325 -44 -102 -13 -232 -31 -290 -39
-58 -8 -158 -22 -224 -31 -113 -14 -146 -25 -146 -48 0 -10 130 -3 168 9 14 5
13 2 -3 -11 -15 -12 -37 -15 -95 -13 -53 2 -78 -1 -85 -10 -8 -9 -66 -18 -185
-27 -213 -17 -351 -35 -368 -48 -9 -7 -12 -58 -11 -196 1 -239 10 -349 29
-362 15 -10 105 -7 116 4 4 3 9 37 13 74 l6 68 5 -70 5 -69 75 -23 c112 -34
161 -54 155 -63 -7 -11 58 -24 84 -17 10 2 45 0 77 -6 48 -8 55 -11 36 -18
-18 -7 -22 -16 -22 -49 0 -37 -2 -40 -27 -40 -16 0 -45 -3 -66 -7 l-38 -6 7
-270 c4 -149 8 -282 8 -296 1 -24 -3 -26 -39 -28 -22 -1 -31 1 -20 4 11 3 25
9 31 14 11 9 17 282 6 275 -4 -2 -7 28 -6 67 0 40 -3 77 -8 84 -5 6 -8 33 -6
60 1 26 -1 54 -6 62 -7 10 -5 12 5 6 11 -6 11 -5 2 5 -9 10 -38 11 -135 4
l-123 -9 4 -235 c4 -252 7 -340 13 -344 1 -1 30 -13 63 -26 33 -13 88 -41 123
-62 58 -36 67 -38 141 -38 70 0 79 -2 84 -20 3 -11 2 -22 -2 -24 -4 -3 -101
-10 -216 -16 -116 -6 -219 -15 -231 -20 -31 -12 -34 -44 -34 -310 0 -178 3
-240 13 -247 19 -15 121 -24 193 -17 49 5 67 12 75 26 7 13 7 18 -2 16 -7 -2
-15 5 -17 15 -2 11 2 16 10 15 9 -2 14 12 15 51 3 82 13 74 13 -10 0 -102 -6
-117 -43 -121 -27 -3 -53 -28 -28 -28 5 0 21 -10 34 -22 56 -52 81 -63 157
-68 73 -5 75 -6 78 -32 l3 -28 -158 -2 c-87 -1 -167 -2 -178 -3 -11 -1 -32 -3
-47 -4 -15 0 -32 -9 -37 -19 -11 -20 -41 -375 -41 -478 0 -50 3 -63 17 -69 33
-12 267 -18 306 -7 30 8 37 8 37 -4 0 -11 -16 -14 -65 -14 -80 0 -84 -13 -23
-72 41 -39 45 -41 125 -46 l83 -5 0 -33 c0 -29 -3 -34 -24 -34 -12 0 -52 -2
-87 -5 -47 -3 -55 -2 -29 4 l35 8 -32 2 c-17 0 -45 -7 -62 -16 -27 -16 -31
-23 -31 -64 0 -26 -11 -154 -25 -285 -14 -132 -25 -244 -25 -250 0 -7 9 -14
20 -17 11 -3 20 -10 20 -17 0 -6 -4 -8 -10 -5 -5 3 -10 3 -10 -2 0 -4 21 -21
46 -37 38 -24 60 -30 123 -34 42 -2 84 -9 94 -14 35 -18 -5 -33 -93 -35 -47
-2 -136 -5 -198 -8 -101 -6 -114 -8 -126 -28 -13 -21 -66 -422 -66 -499 0 -48
17 -57 119 -65 l80 -6 7 27 c4 15 4 58 2 94 -4 43 -2 60 3 47 6 -14 8 -5 5 30
-2 28 -1 41 2 30 3 -11 11 15 17 60 12 88 3 112 -40 107 -20 -3 -21 0 -15 52
6 52 20 89 20 52 0 -13 4 -15 19 -6 26 13 29 13 34 -7 3 -10 3 1 2 24 -1 24 2
43 7 43 5 0 6 4 3 10 -3 5 -1 10 4 10 6 0 11 -15 11 -34 0 -38 -56 -480 -65
-518 -6 -24 -3 -27 44 -43 49 -16 72 -33 31 -22 -11 3 -20 1 -20 -4 0 -5 5 -9
10 -9 6 0 9 -6 8 -12 -2 -7 4 -13 12 -13 8 0 20 -4 27 -8 7 -4 49 -13 93 -19
77 -12 82 -14 94 -43 7 -16 32 -43 55 -59 27 -19 38 -32 30 -36 -8 -6 -7 -9 2
-13 12 -5 12 -7 0 -15 -10 -7 17 -12 85 -16 131 -9 158 -13 107 -15 -24 0 -43
-5 -43 -11 0 -5 -16 -10 -36 -10 -19 0 -33 -4 -30 -9 14 -21 149 -32 387 -30
137 1 252 -1 256 -5 6 -6 -51 -11 -92 -8 -27 2 -176 -20 -171 -26 13 -12 208
-32 319 -32 83 0 126 -4 122 -10 -3 -5 -21 -10 -40 -10 -43 0 -55 -17 -18 -25
15 -3 55 -13 88 -22 33 -9 123 -19 200 -23 77 -4 129 -7 116 -8 -58 -4 -2 -15
120 -24 73 -5 138 -13 144 -18 12 -10 114 -31 235 -49 36 -6 135 -21 220 -35
85 -14 236 -37 335 -51 99 -14 187 -28 195 -30 64 -19 273 -38 465 -44 166 -5
218 -9 187 -15 -24 -5 -40 -12 -35 -17 18 -17 229 -39 384 -40 90 -1 175 -4
189 -8 23 -7 22 -8 -14 -15 -102 -20 67 -46 347 -53 114 -3 207 -10 207 -14 0
-5 -9 -9 -20 -9 -27 0 -25 -18 3 -24 93 -20 210 -27 457 -27 262 -1 281 -2
230 -14 -30 -8 -67 -14 -82 -15 -47 0 -31 -18 27 -30 114 -24 393 -30 379 -9
-3 5 -14 9 -25 9 -10 0 -19 5 -19 11 0 9 25 10 88 6 223 -15 353 -30 423 -47
44 -11 105 -19 145 -18 76 1 203 -16 451 -63 90 -17 216 -36 280 -43 65 -7
127 -16 138 -20 15 -5 14 -3 -2 5 -32 17 -29 27 12 35 25 4 43 1 67 -14 29
-18 39 -19 85 -9 46 10 55 9 73 -8 11 -10 20 -26 20 -37 0 -13 8 -18 30 -18
17 0 45 -6 63 -13 18 -7 64 -14 102 -15 137 -4 388 -47 363 -63 -10 -7 -10 -9
2 -10 8 0 -7 -7 -35 -15 -43 -12 -70 -12 -194 1 -163 17 -214 19 -191 6 20
-11 153 -35 395 -72 363 -56 427 -61 705 -55 140 3 278 8 305 11 78 8 25 -10
-90 -31 -121 -21 -140 -29 -105 -42 90 -34 588 -49 791 -23 50 7 96 8 110 3
18 -7 8 -10 -47 -16 -82 -8 -194 -35 -194 -47 0 -16 124 -35 290 -44 93 -5
127 -3 174 10 31 9 63 15 69 12 7 -3 46 1 87 8 62 11 101 10 230 -2 151 -14
308 -11 368 7 27 8 27 8 2 9 -41 2 -10 18 69 35 111 25 160 57 197 129 28 52
33 133 44 627 6 272 15 659 20 860 6 201 15 561 20 800 25 1077 41 1731 50
2055 5 193 17 670 25 1060 8 391 19 832 25 980 30 829 29 851 -40 928 -49 55
-97 71 -280 97 -180 25 -306 47 -344 60 -16 6 -44 10 -63 10 -30 0 -33 -2 -23
-19 5 -11 10 -29 10 -40 0 -41 -33 -18 -45 32 -8 30 -14 31 -100 16z m-2896
-483 c-8 -8 -334 -40 -389 -39 -40 1 -48 -1 -30 -7 23 -7 22 -8 -10 -8 -19 0
-48 4 -65 7 -24 6 -13 9 50 15 44 4 141 13 215 20 140 14 236 19 229 12z
m-614 -56 c-11 -5 -38 -8 -60 -8 -38 0 -39 1 -10 8 17 4 44 8 60 8 25 1 27 -1
10 -8z m85 -9 c-58 -18 -80 -21 -80 -12 0 10 33 17 80 19 l25 0 -25 -7z m717
-56 c36 -25 44 -75 31 -194 -10 -100 -37 -199 -38 -143 0 23 -2 24 -60 26 -33
1 -35 3 -41 46 -4 25 -12 58 -18 73 -12 31 -13 127 -2 167 10 38 88 53 128 25z
m-1304 -2 c-7 -2 -21 -2 -30 0 -10 3 -4 5 12 5 17 0 24 -2 18 -5z m-60 -10
c-7 -2 -21 -2 -30 0 -10 3 -4 5 12 5 17 0 24 -2 18 -5z m336 -47 c7 -8 27 -12
52 -11 33 2 42 -2 49 -19 9 -21 9 -21 9 2 1 21 5 23 51 27 8 0 21 4 28 9 17
10 29 -1 37 -36 5 -21 3 -29 -9 -34 -14 -5 -14 -8 0 -30 14 -21 14 -25 2 -29
-8 -3 -19 -5 -24 -4 -5 1 -11 0 -14 -1 -5 -3 -22 -5 -93 -14 -22 -2 -41 -7
-44 -10 -11 -11 -43 15 -43 34 0 33 -38 26 -42 -7 -2 -16 -7 -28 -13 -28 -11
0 -20 128 -11 152 7 17 50 17 65 -1z m1223 -21 c11 11 29 -25 30 -62 3 -56
-20 -100 -54 -105 -15 -3 -25 -1 -22 4 3 5 -2 22 -10 40 -18 36 -21 94 -6 134
l11 27 23 -22 c12 -11 25 -19 28 -16z m-1554 -42 c12 -26 18 -132 6 -121 -3 4
-17 0 -32 -8 -18 -9 -30 -10 -39 -3 -9 8 -21 6 -44 -5 -18 -9 -42 -13 -55 -10
-15 4 -24 2 -24 -5 0 -17 -57 -13 -64 5 -10 25 -7 34 11 34 14 0 13 3 -5 20
-24 23 -28 50 -12 81 13 23 43 25 61 3 11 -14 11 -18 -4 -29 -9 -6 -14 -15
-10 -18 13 -13 28 -7 38 16 7 15 19 22 40 23 49 1 55 3 55 20 0 9 6 14 13 12
6 -3 13 -25 15 -51 4 -66 22 -59 22 8 0 61 8 69 28 28z m-1040 -10 c-10 -2
-26 -2 -35 0 -10 3 -2 5 17 5 19 0 27 -2 18 -5z m475 -47 c3 -7 0 -19 -6 -25
-6 -6 -8 -14 -4 -18 4 -3 13 2 21 12 7 10 18 15 24 11 15 -9 15 -43 1 -52 -8
-4 -8 -9 0 -17 6 -6 11 -22 11 -35 0 -19 -4 -23 -20 -19 -11 3 -22 2 -25 -3
-3 -4 -19 -7 -37 -6 -29 1 -34 6 -44 41 -10 33 -21 34 -15 1 3 -15 -10 -46
-20 -46 -5 0 -9 11 -9 25 0 20 -5 25 -24 25 -19 0 -25 -6 -28 -25 -6 -53 -23
-23 -23 43 0 66 1 67 28 70 18 2 29 -2 33 -12 8 -21 50 -21 58 0 3 8 10 13 15
9 6 -3 15 4 21 15 12 23 35 26 43 6z m-948 -16 c-3 -5 -10 -10 -16 -10 -5 0
-9 5 -9 10 0 6 7 10 16 10 8 0 12 -4 9 -10z m-72 -7 c-7 -2 -19 -2 -25 0 -7 3
-2 5 12 5 14 0 19 -2 13 -5z m547 -77 c0 -28 -4 -57 -9 -65 -6 -9 -5 -21 1
-31 16 -25 2 -52 -24 -48 -29 4 -35 37 -14 80 19 38 20 59 4 56 -17 -4 -14 62
3 73 24 14 39 -12 39 -65z m-135 29 c0 -13 -8 -21 -22 -23 -28 -4 -30 -28 -3
-35 27 -7 27 -47 1 -47 -16 0 -20 -8 -23 -37 -6 -74 -23 -37 -26 56 -3 102 2
113 48 109 17 -2 25 -9 25 -23z m60 -75 c0 -66 -4 -95 -12 -97 -10 -4 -13 12
-13 59 0 35 -4 69 -9 77 -11 17 8 63 23 58 7 -2 11 -39 11 -97z m3339 74 c11
-28 6 -61 -10 -75 -14 -11 -18 -10 -30 6 -17 22 -18 40 -4 66 13 23 36 25 44
3z m-4184 -7 c-14 -7 -38 -11 -55 -8 l-30 5 30 7 c17 4 41 7 55 8 l25 1 -25
-13z m-127 -14 c-13 -2 -35 -2 -50 0 -16 2 -5 4 22 4 28 0 40 -2 28 -4z m557
-105 c0 -118 -17 -125 -20 -8 -3 99 -2 110 10 110 6 0 10 -41 10 -102z m-90
77 c0 -9 -11 -21 -25 -27 -30 -13 -33 -38 -5 -38 13 0 20 -7 20 -19 0 -10 -9
-21 -20 -24 -15 -4 -20 -14 -20 -41 0 -47 -16 -46 -24 2 -8 49 -8 147 1 155 3
4 21 7 40 7 23 0 33 -5 33 -15z m50 -80 c0 -52 -4 -95 -8 -95 -13 0 -31 152
-20 173 19 38 28 14 28 -78z m-687 68 c-7 -2 -19 -2 -25 0 -7 3 -2 5 12 5 14
0 19 -2 13 -5z m-111 -10 c-18 -3 -35 -10 -38 -16 -3 -8 -27 -11 -77 -8 l-72
4 80 12 c44 7 94 12 110 12 29 0 28 0 -3 -4z m-204 -30 c-10 -2 -26 -2 -35 0
-10 3 -2 5 17 5 19 0 27 -2 18 -5z m477 -18 c0 -13 -8 -21 -22 -23 -28 -4 -31
-32 -3 -32 13 0 20 -7 20 -19 0 -10 -9 -21 -20 -24 -15 -4 -20 -14 -20 -41 0
-20 -4 -36 -10 -36 -11 0 -14 183 -3 194 4 4 19 6 33 4 17 -2 25 -9 25 -23z
m56 3 l0 -23 9 23 c12 29 38 28 45 -1 4 -13 5 -50 3 -82 -3 -52 -6 -60 -23
-60 -15 0 -22 9 -26 35 -6 33 -6 32 -8 -12 -2 -72 -21 -58 -21 15 0 35 -5 68
-11 74 -8 8 -7 17 3 32 17 27 28 27 29 -1z m-633 -5 c-16 -2 -40 -2 -55 0 -16
2 -3 4 27 4 30 0 43 -2 28 -4z m-135 -10 c-13 -2 -33 -2 -45 0 -13 2 -3 4 22
4 25 0 35 -2 23 -4z m-130 -10 c-13 -2 -33 -2 -45 0 -13 2 -3 4 22 4 25 0 35
-2 23 -4z m2847 -8 c0 -8 -4 -15 -10 -15 -5 0 -7 7 -4 15 4 8 8 15 10 15 2 0
4 -7 4 -15z m-2931 -2 c-13 -3 -15 -14 -11 -56 2 -29 2 -50 -1 -47 -3 3 -7 23
-9 45 l-4 40 -65 -1 c-35 0 -111 -3 -169 -7 -99 -6 -100 -5 -25 3 44 6 112 14
150 19 72 9 162 12 134 4z m198 1 c-3 -3 -12 -4 -19 -1 -8 3 -5 6 6 6 11 1 17
-2 13 -5z m-74 -11 c-7 -2 -21 -2 -30 0 -10 3 -4 5 12 5 17 0 24 -2 18 -5z
m-93 -13 c-19 -13 -30 -13 -30 0 0 6 10 10 23 10 18 0 19 -2 7 -10z m2895 -5
c11 2 21 4 23 4 11 4 16 -5 14 -21 -2 -11 2 -26 8 -34 10 -11 10 -17 0 -29 -7
-9 -10 -25 -6 -41 6 -21 4 -25 -8 -21 -11 5 -16 0 -16 -13 0 -11 -4 -20 -10
-20 -5 0 -10 10 -10 21 0 17 -3 19 -14 10 -9 -8 -16 -8 -20 -2 -4 5 -2 12 4
16 14 9 12 21 -6 40 -13 12 -13 19 -4 30 7 9 9 26 5 47 -6 27 -5 31 7 21 7 -7
23 -10 33 -8z m-2405 -10 c0 -8 -8 -15 -18 -15 -25 0 -31 -7 -25 -31 3 -10 14
-19 24 -19 25 0 24 -16 -1 -23 -15 -4 -20 -14 -22 -44 -1 -22 -4 -8 -7 32 -8
96 -4 115 25 115 15 0 24 -6 24 -15z m68 -75 c0 -30 -3 -45 -5 -32 -2 12 -8
20 -13 17 -15 -9 -31 34 -27 68 4 31 4 31 5 -5 2 -37 15 -50 25 -25 3 7 3 26
1 43 -4 24 -3 26 5 9 5 -11 9 -45 9 -75z m-983 70 c-11 -5 -49 -8 -85 -8 l-65
1 55 7 c30 4 69 7 85 8 25 0 27 -1 10 -8z m112 -6 c-3 -3 -12 -4 -19 -1 -8 3
-5 6 6 6 11 1 17 -2 13 -5z m4673 -4 c0 -5 -22 -10 -50 -10 -27 0 -50 5 -50
10 0 6 23 10 50 10 28 0 50 -4 50 -10z m-4957 -7 c-7 -2 -19 -2 -25 0 -7 3 -2
5 12 5 14 0 19 -2 13 -5z m154 -35 c-3 -7 -5 -2 -5 12 0 14 2 19 5 13 2 -7 2
-19 0 -25z m-229 15 c-10 -2 -28 -2 -40 0 -13 2 -5 4 17 4 22 1 32 -1 23 -4z
m-103 -10 c-22 -2 -47 -6 -55 -9 -8 -4 -53 -7 -100 -9 l-85 -3 85 13 c47 7
110 12 140 12 41 0 45 -1 15 -4z m645 -14 c0 -6 -9 -13 -20 -16 -11 -3 -20
-14 -20 -24 0 -12 7 -19 20 -19 26 0 26 -20 -1 -27 -17 -5 -20 -12 -17 -35 3
-16 1 -31 -4 -34 -4 -3 -8 33 -8 80 0 85 0 86 25 86 14 0 25 -5 25 -11z m57
-66 c0 -43 -3 -63 -5 -45 -2 17 -8 32 -14 32 -7 0 -8 -13 -5 -35 3 -20 2 -33
-3 -30 -4 3 -8 38 -7 77 1 40 3 63 5 51 5 -31 22 -29 22 2 0 14 2 25 4 25 2 0
4 -35 3 -77z m-403 -37 c-4 -47 -10 -86 -14 -86 -7 0 -5 54 4 118 2 12 -1 22
-5 22 -14 0 -11 28 4 33 6 2 13 3 15 2 2 -2 0 -42 -4 -89z m433 57 c-3 -10 -5
-4 -5 12 0 17 2 24 5 18 2 -7 2 -21 0 -30z m1941 -55 c-3 -89 -4 -92 -28 -98
-46 -12 -50 -4 -50 96 l0 94 40 0 41 0 -3 -92z m2462 65 c0 -16 3 -45 6 -65 5
-25 3 -38 -5 -38 -6 0 -11 7 -11 15 0 23 -18 18 -23 -7 l-4 -23 -8 23 c-5 14
-15 22 -31 22 -27 0 -34 28 -9 35 8 3 22 7 30 10 12 4 14 9 5 24 -8 16 -6 20
8 24 36 10 42 7 42 -20z m-4880 3 c0 -8 -9 -18 -20 -21 -11 -3 -20 -15 -20
-26 0 -12 7 -19 20 -19 26 0 26 -17 1 -25 -14 -4 -21 -17 -24 -43 -2 -20 -4 2
-5 49 -1 47 1 89 5 92 12 13 43 7 43 -7z m-685 -6 c-3 -5 -30 -9 -58 -8 l-52
1 45 7 c69 11 72 11 65 0z m-122 -17 c-7 -2 -21 -2 -30 0 -10 3 -4 5 12 5 17
0 24 -2 18 -5z m1877 -23 c0 -5 -4 -12 -10 -15 -5 -3 -10 -4 -10 -1 0 2 -3 12
-6 20 -5 12 -2 15 10 10 9 -3 16 -10 16 -14z m-1420 -5 c0 -8 -4 -15 -10 -15
-16 0 -12 -27 5 -34 11 -4 15 -19 13 -53 l-1 -48 -6 45 c-4 30 -9 41 -14 32
-5 -7 -6 -30 -3 -50 5 -27 4 -33 -3 -22 -12 16 -15 119 -5 144 8 20 24 21 24
1z m2295 -39 c10 -74 5 -90 -28 -94 l-27 -3 0 69 c0 73 3 82 31 82 14 0 19
-12 24 -54z m-2872 37 c-13 -2 -33 -2 -45 0 -13 2 -3 4 22 4 25 0 35 -2 23 -4z
m527 -8 c0 -8 -9 -15 -20 -15 -28 0 -26 -36 3 -44 l22 -7 -22 -15 c-17 -12
-21 -22 -16 -45 3 -18 1 -29 -6 -29 -12 0 -16 151 -4 163 12 13 43 7 43 -8z
m-627 -2 c-7 -2 -21 -2 -30 0 -10 3 -4 5 12 5 17 0 24 -2 18 -5z m-113 -10
c-19 -2 -53 -7 -75 -13 -62 -14 -223 -23 -205 -10 8 5 42 10 75 11 33 0 80 4
105 8 25 5 65 8 90 8 36 0 38 -1 10 -4z m47 -19 c-3 -3 -12 -4 -19 -1 -8 3 -5
6 6 6 11 1 17 -2 13 -5z m333 -10 c0 -9 -9 -18 -20 -21 -11 -3 -20 -11 -20
-18 0 -7 9 -15 20 -18 23 -6 27 -27 5 -27 -10 0 -15 -11 -15 -35 0 -19 -4 -35
-10 -35 -11 0 -14 152 -3 163 13 13 43 7 43 -9z m50 6 c0 -5 -4 -10 -10 -10
-15 0 -12 -19 5 -36 16 -17 20 -81 6 -103 -11 -18 -31 -5 -31 20 0 11 5 17 10
14 6 -4 10 5 10 19 0 14 -4 26 -10 26 -5 0 -10 18 -10 40 0 29 4 40 15 40 8 0
15 -4 15 -10z m2202 -65 c1 -5 0 -27 0 -47 -2 -48 -22 -50 -22 -3 0 19 -4 35
-10 35 -5 0 -10 -16 -10 -35 0 -19 -4 -35 -10 -35 -5 0 -10 13 -10 29 0 16 -5
31 -12 33 -12 4 11 48 42 79 14 14 16 13 23 -15 4 -17 8 -35 9 -41z m-3037 49
c-55 -7 -116 -13 -135 -12 -50 1 125 25 185 25 34 1 18 -4 -50 -13z m2032
-176 c-2 -35 -3 -9 -3 57 0 66 1 94 3 63 2 -32 2 -86 0 -120z m585 78 l3 -65
-33 -6 c-18 -3 -37 -3 -42 0 -6 3 -10 33 -10 65 0 62 4 66 57 69 19 1 22 -5
25 -63z m3775 42 c-3 -8 -6 -5 -6 6 -1 11 2 17 5 13 3 -3 4 -12 1 -19z m-6592
7 c-5 -2 -57 -8 -115 -15 -58 -6 -123 -13 -145 -16 -21 -3 -36 -2 -33 2 9 8
189 31 253 32 28 0 46 -1 40 -3z m491 -29 c-3 -13 -1 -37 4 -55 5 -19 5 -41 0
-54 -7 -17 -9 -18 -9 -4 -1 9 -8 17 -17 17 -14 0 -16 8 -10 50 4 28 9 57 12
65 9 23 26 6 20 -19z m-46 9 c0 -8 -9 -15 -20 -15 -13 0 -20 -7 -20 -20 0 -11
6 -20 14 -20 23 0 30 -21 9 -26 -15 -4 -18 -12 -15 -35 3 -17 0 -29 -7 -29 -7
0 -11 28 -11 80 0 79 0 80 25 80 16 0 25 -6 25 -15z m6210 -5 c0 -11 -13 -29
-29 -41 -16 -12 -28 -27 -25 -33 8 -22 -12 -37 -39 -30 -23 5 -27 12 -27 40 0
23 5 34 15 34 7 0 18 7 23 16 6 11 17 15 31 11 14 -3 24 0 28 9 8 21 23 17 23
-6z m-6468 -70 c2 -66 -6 -95 -23 -85 -5 4 -9 16 -9 28 0 17 2 19 9 8 6 -10 9
4 8 41 0 31 -5 54 -9 52 -10 -6 -11 20 -1 29 14 15 22 -10 25 -73z m-52 55 c0
-8 -7 -15 -15 -15 -8 0 -15 -9 -15 -20 0 -11 7 -20 15 -20 8 0 15 -7 15 -15 0
-8 -7 -15 -15 -15 -10 0 -15 -11 -16 -32 -1 -31 -1 -32 -9 -8 -10 31 -12 103
-4 124 8 20 44 21 44 1z m-477 -2 c-13 -2 -33 -2 -45 0 -13 2 -3 4 22 4 25 0
35 -2 23 -4z m194 -35 c-3 -8 -6 -5 -6 6 -1 11 2 17 5 13 3 -3 4 -12 1 -19z
m2313 0 l9 -23 0 23 c1 12 6 22 11 22 6 0 9 -28 9 -67 -1 -38 -4 -55 -6 -38
l-5 29 -19 -24 -19 -25 0 25 -1 25 -15 -27 c-8 -16 -17 -28 -19 -28 -3 0 -5
28 -5 62 0 60 0 61 20 43 19 -18 20 -17 20 3 0 28 8 28 20 0z m-2623 -20 c-3
-8 -6 -5 -6 6 -1 11 2 17 5 13 3 -3 4 -12 1 -19z m2290 0 c-3 -8 -6 -5 -6 6
-1 11 2 17 5 13 3 -3 4 -12 1 -19z m-1997 1 c0 -5 4 -8 8 -5 5 3 5 -18 1 -47
-4 -29 -4 -65 -1 -81 4 -24 2 -27 -14 -24 -20 4 -21 10 -9 72 6 28 5 37 -4 32
-12 -8 -15 21 -5 48 7 18 24 22 24 5z m-40 -13 c0 -8 -7 -16 -15 -20 -8 -3
-15 -10 -15 -16 0 -5 7 -10 15 -10 8 0 15 -9 15 -20 0 -11 -6 -20 -14 -20 -9
0 -12 -7 -9 -20 3 -11 2 -28 -3 -37 -9 -21 -22 44 -23 115 -1 38 1 42 24 42
15 0 25 -6 25 -14z m2000 -51 c0 -36 -3 -65 -7 -65 -16 0 -31 16 -35 35 -3 18
-6 17 -21 -10 l-16 -30 -1 31 c0 17 -3 46 -6 63 -8 37 7 41 26 6 17 -31 30
-32 30 -2 0 13 3 27 7 30 17 17 23 2 23 -58z m-2254 30 c-3 -8 -1 -15 4 -15 6
0 9 -40 8 -97 l-2 -98 -6 75 c-5 63 -7 67 -8 26 -3 -73 -20 -45 -24 37 -2 52
1 70 12 77 21 13 23 12 16 -5z m2303 -217 c1 -66 1 -66 -31 -77 -17 -6 -33 -9
-35 -7 -3 2 6 7 19 11 13 4 26 13 30 19 4 6 6 74 4 151 -4 118 -3 127 4 55 4
-47 8 -115 9 -152z m-2772 216 c-3 -3 -12 -4 -19 -1 -8 3 -5 6 6 6 11 1 17 -2
13 -5z m427 -9 c-4 -8 -10 -15 -15 -15 -14 0 -10 -20 7 -38 15 -14 15 -17 0
-27 -9 -7 -16 -24 -16 -39 0 -14 -4 -26 -10 -26 -6 0 -10 33 -10 80 0 78 0 80
25 80 18 0 23 -4 19 -15z m-525 -122 c1 -71 3 -159 5 -198 3 -38 3 -60 0 -47
-3 12 -10 22 -16 22 -6 0 -8 -9 -5 -21 7 -25 -1 -49 -15 -49 -6 0 -7 7 -4 16
4 11 -1 22 -14 31 -24 17 -26 60 -6 89 15 19 15 19 30 -1 14 -19 15 -17 16 32
l0 51 -32 -4 c-18 -2 -42 -5 -53 -6 -17 -3 -21 5 -27 57 -9 80 -2 105 28 105
28 0 33 -26 8 -45 -16 -11 -16 -12 -1 -18 11 -4 21 1 28 14 6 12 17 18 25 15
11 -4 14 5 14 39 0 25 4 45 9 45 5 0 9 -57 10 -127z m888 85 c-3 -8 -6 -5 -6
6 -1 11 2 17 5 13 3 -3 4 -12 1 -19z m1494 3 c17 22 19 22 19 5 0 -20 0 -20
15 0 13 17 14 14 14 -41 0 -55 -1 -58 -14 -41 -13 17 -15 18 -15 3 0 -22 -9
-22 -27 1 -14 16 -14 16 -9 0 3 -10 1 -20 -4 -23 -6 -4 -9 19 -9 57 1 35 4 52
6 39 l5 -25 19 25z m7412 2 c-13 -2 -33 -2 -45 0 -13 2 -3 4 22 4 25 0 35 -2
23 -4z m-235 -20 c-10 -2 -28 -2 -40 0 -13 2 -5 4 17 4 22 1 32 -1 23 -4z
m-221 -9 c-3 -3 -12 -4 -19 -1 -8 3 -5 6 6 6 11 1 17 -2 13 -5z m113 2 c0 -3
-13 -11 -30 -20 -24 -12 -30 -12 -30 -1 0 13 17 21 48 24 6 0 12 -1 12 -3z
m-7400 -56 c0 -43 -3 -50 -20 -50 -17 0 -20 7 -20 50 0 43 3 50 20 50 17 0 20
-7 20 -50z m5020 29 c0 -5 12 -9 28 -9 38 -1 9 -17 -45 -26 -49 -8 -64 9 -33
36 21 18 50 17 50 -1z m-3803 -31 c-3 -7 -5 -2 -5 12 0 14 2 19 5 13 2 -7 2
-19 0 -25z m5710 16 c-3 -3 -12 -4 -19 -1 -8 3 -5 6 6 6 11 1 17 -2 13 -5z
m-7476 -44 c5 0 9 -9 9 -20 0 -11 -4 -20 -10 -20 -5 0 -11 -12 -11 -27 -1 -17
-3 -21 -6 -10 -2 9 -9 17 -14 17 -13 0 -11 41 4 73 11 24 12 24 15 7 2 -11 8
-20 13 -20z m7382 33 c-13 -2 -33 -2 -45 0 -13 2 -3 4 22 4 25 0 35 -2 23 -4z
m-7336 -40 c-3 -10 -5 -4 -5 12 0 17 2 24 5 18 2 -7 2 -21 0 -30z m7262 33
c-11 -9 -69 -15 -64 -6 3 6 20 10 37 10 17 0 29 -2 27 -4z m1391 -4 c0 -4 -9
-13 -20 -20 -31 -19 -24 -30 23 -37 47 -8 77 -29 77 -55 0 -18 -35 -60 -50
-60 -6 0 -10 -18 -10 -40 0 -22 -4 -40 -8 -40 -5 0 -9 37 -9 81 -1 55 -6 86
-15 95 -11 12 -14 7 -15 -29 -3 -100 -9 -132 -24 -132 -20 0 -33 116 -19 173
6 24 8 47 5 52 -3 4 1 11 7 13 20 8 58 8 58 -1z m-8963 -199 c-2 -38 -3 -7 -3
67 0 74 1 105 3 68 2 -38 2 -98 0 -135z m3083 187 c0 -5 -5 -10 -11 -10 -5 0
-7 5 -4 10 3 6 8 10 11 10 2 0 4 -4 4 -10z m2260 -7 c24 -8 -17 -21 -71 -22
-54 -1 -67 8 -36 25 20 11 71 10 107 -3z m-5389 -23 c5 0 9 -14 9 -31 0 -17
-4 -28 -10 -24 -6 4 -10 -5 -10 -21 l0 -27 -20 26 c-20 26 -27 67 -11 67 5 0
12 10 16 23 6 19 8 19 12 5 2 -10 9 -18 14 -18z m7126 14 c-3 -3 -12 -4 -19
-1 -8 3 -5 6 6 6 11 1 17 -2 13 -5z m-5050 -56 c-2 -13 -4 -5 -4 17 -1 22 1
32 4 23 2 -10 2 -28 0 -40z m5001 45 c-10 -2 -26 -2 -35 0 -10 3 -2 5 17 5 19
0 27 -2 18 -5z m-118 -13 c-83 -18 -100 -20 -100 -7 0 8 22 12 68 14 53 1 60
-1 32 -7z m-7253 -22 c-3 -8 -6 -5 -6 6 -1 11 2 17 5 13 3 -3 4 -12 1 -19z
m4908 -13 c0 -12 -103 -23 -137 -14 -22 5 -22 6 7 17 36 13 130 11 130 -3z
m-4949 -42 c10 -7 12 -13 5 -18 -6 -3 -11 -18 -11 -32 l0 -27 -20 22 c-23 24
-26 53 -7 82 11 19 12 19 15 3 2 -10 10 -23 18 -30z m1612 -68 c-2 -2 -17 -6
-33 -10 l-30 -6 28 16 c23 14 27 22 29 68 l2 52 3 -59 c2 -32 3 -60 1 -61z
m5017 106 c3 -5 1 -12 -5 -16 -5 -3 -10 1 -10 9 0 18 6 21 15 7z m-6587 -36
c-1 -20 -4 -38 -8 -40 -4 -2 -5 6 -4 18 1 12 3 30 3 40 1 9 3 17 6 17 2 0 4
-16 3 -35z m7672 0 c0 -18 4 -23 15 -19 10 4 15 0 15 -15 0 -12 -5 -21 -10
-21 -7 0 -8 -13 -4 -35 4 -23 2 -35 -5 -35 -6 0 -11 7 -11 15 0 8 -4 15 -10
15 -5 0 -10 -6 -10 -14 0 -8 -5 -18 -12 -22 -8 -5 -9 3 -5 29 4 28 2 39 -10
46 -20 11 -10 43 12 35 11 -5 15 1 15 26 0 18 4 29 10 25 6 -3 10 -17 10 -30z
m-7978 -122 c3 -68 1 -123 -3 -123 -5 0 -9 6 -9 13 -4 130 -4 253 1 244 4 -7
9 -67 11 -134z m-40 105 c3 -66 2 -73 -10 -70 -7 1 -12 -2 -12 -8 0 -5 -6 -10
-14 -10 -10 0 -12 12 -9 48 6 63 10 72 28 72 10 0 15 -11 17 -32z m2718 22 c0
-5 -6 -10 -12 -10 -7 0 -24 -3 -38 -6 -22 -4 -21 -3 5 10 37 18 45 19 45 6z
m1843 -21 c-5 -5 -38 -11 -73 -14 l-65 -5 39 18 c38 18 117 19 99 1z m-3553
-54 c0 -36 -3 -65 -7 -65 -5 0 -6 29 -5 65 2 36 6 65 8 65 2 0 4 -29 4 -65z
m545 45 c3 -5 1 -10 -4 -10 -6 0 -11 5 -11 10 0 6 2 10 4 10 3 0 8 -4 11 -10z
m5810 -97 c-16 -76 -35 -118 -35 -78 0 22 31 168 38 179 14 24 13 -24 -3 -101z
m1355 92 c0 -11 -12 -15 -46 -15 -40 0 -45 2 -34 15 7 8 28 15 46 15 24 0 34
-5 34 -15z m-7160 -44 c0 -21 -6 -32 -21 -36 -29 -10 -32 -2 -9 23 12 12 16
22 10 22 -5 0 -10 5 -10 10 0 6 7 10 15 10 10 0 15 -10 15 -29z m5160 -66 c0
-47 -4 -85 -9 -85 -5 0 -17 20 -27 45 -9 25 -20 45 -25 45 -4 0 -10 -21 -12
-47 -2 -31 -4 -19 -5 35 -1 45 2 82 6 82 5 0 17 -18 27 -40 22 -50 40 -52 31
-5 -6 32 -2 55 10 55 2 0 4 -38 4 -85z m158 -2 l-1 -68 -7 50 c-5 45 -7 47
-14 23 -5 -16 -6 -35 -3 -43 4 -8 2 -17 -3 -20 -6 -4 -10 14 -10 42 0 32 -3
43 -9 34 -5 -8 -8 -29 -6 -48 1 -18 -2 -33 -6 -33 -11 0 -12 90 -1 106 6 10
26 19 55 23 4 0 6 -29 5 -66z m-782 49 c6 -4 15 -17 18 -30 6 -17 11 -20 20
-13 7 6 22 9 33 7 16 -4 23 2 28 21 9 38 23 16 28 -42 l3 -50 2 58 c1 31 7 57
12 57 6 0 10 -7 10 -15 0 -9 8 -14 23 -12 20 2 22 -3 25 -47 2 -28 -1 -59 -6
-70 -6 -12 -14 -30 -18 -41 -7 -18 -8 -17 -12 8 -3 23 -7 26 -27 21 -14 -3
-26 0 -31 8 -6 9 -11 0 -14 -27 -4 -35 -9 -40 -32 -43 -32 -4 -39 21 -10 37
16 9 16 10 -1 16 -10 5 -20 22 -23 46 -6 33 -8 36 -21 23 -8 -8 -19 -12 -24
-9 -5 4 -9 -8 -9 -24 0 -21 -5 -31 -15 -31 -12 0 -15 15 -15 74 0 72 5 83 35
85 6 0 15 -3 21 -7z m699 -64 c5 -47 3 -57 -11 -62 -25 -10 -34 4 -41 62 -4
36 -2 52 6 52 6 0 11 -18 11 -45 0 -25 5 -45 10 -45 6 0 10 23 10 52 0 65 7
59 15 -14z m-1225 0 c0 -17 3 -18 15 -8 8 7 25 10 39 6 14 -3 28 -1 31 5 4 5
19 9 35 7 15 -1 34 3 43 10 13 11 17 10 26 -7 16 -28 13 -61 -4 -67 -12 -5
-13 -10 -4 -20 24 -29 4 -36 -104 -38 -97 -2 -107 -1 -107 16 0 10 -4 18 -10
18 -5 0 -10 -9 -10 -20 0 -11 -7 -20 -15 -20 -12 0 -15 14 -15 70 0 44 4 70
11 70 6 0 13 -9 16 -20 7 -25 23 -26 23 -2 0 10 3 22 6 25 11 11 24 -3 24 -25z
m-6110 2 c0 -5 -5 -10 -11 -10 -5 0 -7 5 -4 10 3 6 8 10 11 10 2 0 4 -4 4 -10z
m896 -76 c-3 -8 -16 -13 -28 -13 l-23 2 23 4 c12 2 22 10 21 16 -1 7 0 28 1
47 l3 35 4 -39 c3 -21 2 -44 -1 -52z m334 66 c0 -14 -6 -20 -22 -19 -17 1 -19
2 -5 6 9 2 17 11 17 19 0 8 2 14 5 14 3 0 5 -9 5 -20z m324 5 c-4 -8 -16 -15
-27 -15 -20 0 -20 0 -1 15 25 19 35 19 28 0z m8676 1 c0 -8 3 -21 6 -30 5 -13
-3 -16 -50 -16 -53 0 -56 1 -56 25 0 27 7 30 30 15 13 -9 13 -10 0 -10 -11 -1
-11 -3 3 -11 14 -9 21 -7 32 7 7 11 11 22 9 26 -3 5 2 8 10 8 9 0 16 -6 16
-14z m-4604 -19 c5 -15 61 -11 81 5 18 14 33 0 33 -30 0 -15 2 -40 5 -57 9
-46 -12 -68 -53 -56 -20 6 -43 6 -57 1 -12 -5 -26 -6 -29 -3 -11 11 -7 153 4
153 6 0 13 -6 16 -13z m-762 -74 c4 -5 40 -8 79 -8 70 0 72 -1 72 -25 0 -27
-23 -37 -93 -39 -23 -1 -51 -6 -62 -13 -15 -10 -23 -9 -39 6 -25 23 -26 34 -5
64 15 22 35 28 48 15z m-4279 -13 c-3 -5 -18 -10 -33 -9 -24 0 -25 1 -7 9 28
12 47 12 40 0z m3715 -29 c0 -17 5 -33 10 -36 6 -3 10 -15 10 -26 0 -10 -4
-19 -10 -19 -5 0 -10 -16 -10 -35 0 -19 -4 -35 -10 -35 -5 0 -10 12 -10 26 0
14 -7 32 -15 41 -14 14 -14 18 0 39 8 13 15 35 15 49 0 14 5 25 10 25 6 0 10
-13 10 -29z m-831 -65 c1 -57 -5 -40 -12 29 -3 37 -2 51 3 35 4 -14 8 -43 9
-64z m741 35 c0 -28 -48 -42 -78 -23 -25 17 -2 42 39 42 32 0 39 -4 39 -19z
m-3625 -11 c29 -11 33 -30 6 -30 -10 0 -31 -3 -47 -6 -27 -5 -29 -3 -31 26 -2
29 0 31 22 26 13 -3 36 -11 50 -16z m2472 -62 c-2 -18 -4 -6 -4 27 0 33 2 48
4 33 2 -15 2 -42 0 -60z m813 67 c0 -9 -9 -15 -25 -15 -16 0 -25 6 -25 15 0 9
9 15 25 15 16 0 25 -6 25 -15z m-120 -9 c0 -8 -5 -18 -11 -22 -14 -8 -33 11
-25 25 10 16 36 13 36 -3z m-1080 -53 c0 -53 -10 -54 -12 0 -1 24 -7 38 -17
40 -10 3 -8 5 7 6 20 1 22 -4 22 -46z m-385 -174 c1 -107 -1 -150 -2 -97 -3
80 -6 96 -18 91 -11 -3 -15 2 -15 18 0 13 -3 41 -6 62 -5 31 -3 37 11 37 14 0
16 -6 12 -30 -4 -17 -2 -32 5 -36 8 -5 9 12 5 62 -4 38 -11 70 -17 72 -17 6
-11 20 8 18 15 -3 17 -20 17 -197z m1152 94 c-2 -21 -4 -4 -4 37 0 41 2 58 4
38 2 -21 2 -55 0 -75z m-104 -52 c-14 -22 -28 89 -17 126 7 23 9 15 14 -47 3
-41 4 -77 3 -79z m37 79 c0 -38 -3 -70 -7 -70 -5 0 -8 32 -9 70 0 39 3 70 8
70 4 0 8 -31 8 -70z m838 36 c-4 -27 -58 -35 -78 -10 -12 14 -12 18 2 28 10 7
31 11 48 8 25 -4 30 -9 28 -26z m6015 27 c-7 -2 -21 -2 -30 0 -10 3 -4 5 12 5
17 0 24 -2 18 -5z m-8294 -103 c-2 -90 -4 -97 -16 -73 -9 18 -10 30 -3 37 11
11 14 69 3 79 -14 14 -12 57 3 57 12 0 14 -18 13 -100z m997 63 c-7 -35 9 -66
23 -43 5 8 7 28 5 45 -4 23 -3 27 5 15 16 -22 14 -123 -3 -146 -12 -15 -17
-17 -27 -6 -11 10 -10 12 3 12 17 0 32 26 22 41 -3 5 -9 7 -14 4 -16 -10 -32
36 -25 71 3 19 8 34 11 34 3 0 3 -12 0 -27z m109 -47 c0 -41 -3 -72 -7 -69
-15 8 -9 143 6 143 1 0 1 -33 1 -74z m-1465 9 c0 -25 -4 -45 -10 -45 -5 0 -10
-12 -10 -26 0 -14 4 -23 10 -19 7 4 9 -57 8 -177 l-1 -183 -6 162 c-4 89 -10
165 -14 169 -4 4 -7 -2 -7 -14 0 -12 -4 -22 -9 -22 -6 0 -7 16 -4 35 4 23 2
35 -6 35 -6 0 -11 16 -11 35 0 19 5 35 10 35 6 0 10 -5 10 -11 0 -6 6 -9 13
-7 18 7 18 51 -1 66 -14 11 -13 12 6 12 19 0 22 -5 22 -45z m115 34 c-22 -4
-53 -8 -70 -7 -29 1 -29 1 5 8 19 4 51 7 70 8 l35 0 -40 -9z m880 -86 c2 -38
0 -55 -4 -38 -9 44 -37 40 -34 -5 2 -29 1 -31 -7 -13 -13 31 -1 93 16 86 10
-4 14 3 14 23 0 56 12 13 15 -53z m72 55 c-3 -8 -6 -5 -6 6 -1 11 2 17 5 13 3
-3 4 -12 1 -19z m-451 -20 c-3 -18 -9 -57 -12 -85 -4 -29 -11 -53 -17 -53 -9
0 -5 60 9 115 5 19 2 25 -10 25 -16 0 -21 12 -9 23 3 4 15 7 26 7 16 0 18 -5
13 -32z m-1749 -15 c-3 -10 -5 -4 -5 12 0 17 2 24 5 18 2 -7 2 -21 0 -30z
m1384 5 c-24 -9 -28 -28 -6 -28 22 0 36 -42 25 -77 -8 -28 -8 -27 -9 9 -1 20
-5 39 -10 43 -13 7 -24 -30 -16 -55 4 -11 2 -20 -4 -20 -17 0 -17 111 1 143 8
15 12 16 25 6 13 -11 12 -14 -6 -21z m-916 12 c3 -6 -4 -10 -17 -10 -18 0 -20
2 -8 10 19 12 18 12 25 0z m1745 -33 c0 -45 -25 -45 -26 0 0 21 4 33 13 33 8
0 13 -12 13 -33z m416 -4 c-11 -11 -19 6 -11 24 8 17 8 17 12 0 3 -10 2 -21
-1 -24z m-1596 6 c0 -5 -7 -9 -15 -9 -8 0 -15 -7 -15 -15 0 -8 7 -15 15 -15
19 0 30 -62 15 -90 -13 -24 -33 -22 -38 3 -2 12 1 15 12 11 12 -5 16 0 16 20
0 15 -7 29 -15 32 -18 7 -20 70 -2 77 15 5 27 -1 27 -14z m-561 -22 c0 -21 -1
-21 -9 -2 -12 28 -12 37 0 30 6 -3 10 -16 9 -28z m2558 -19 c-2 -13 -4 -5 -4
17 -1 22 1 32 4 23 2 -10 2 -28 0 -40z m-2876 -120 c2 -90 4 -226 4 -303 l0
-140 -25 -2 c-14 -2 -19 0 -10 4 8 3 19 11 23 17 11 16 -3 379 -16 391 -7 7
-8 5 -4 -7 8 -22 -9 -33 -17 -12 -10 27 -7 112 5 120 9 5 10 -4 5 -32 -4 -26
-3 -34 3 -24 12 19 15 78 6 108 -5 13 -16 22 -29 23 -20 0 -20 1 -1 9 52 22
52 22 56 -152z m561 85 c3 -32 2 -67 -3 -78 -5 -14 -8 -3 -9 35 0 39 -3 51
-10 40 -5 -8 -10 -25 -10 -37 0 -13 -4 -23 -10 -23 -5 0 -10 8 -10 17 0 24 31
103 40 103 4 0 10 -26 12 -57z m66 -15 c1 -39 -1 -68 -5 -65 -9 10 -15 137 -5
137 4 0 9 -32 10 -72z m669 50 c-3 -8 -6 -5 -6 6 -1 11 2 17 5 13 3 -3 4 -12
1 -19z m-1057 -49 c6 -67 2 -96 -16 -103 -8 -3 -19 4 -25 15 -12 24 -2 41 11
19 8 -12 10 -12 16 3 3 9 1 23 -4 30 -7 8 -7 18 -2 27 15 23 12 43 -5 36 -15
-5 -21 15 -8 28 16 16 28 -4 33 -55z m2237 -256 c-1 -60 -3 -11 -3 107 0 118
2 167 3 108 2 -60 2 -156 0 -215z m-2167 276 c0 -10 -7 -19 -15 -19 -15 0 -21
31 -9 43 11 10 24 -3 24 -24z m-793 5 c-3 -3 -12 -4 -19 -1 -8 3 -5 6 6 6 11
1 17 -2 13 -5z m-54 -11 c-7 -2 -21 -2 -30 0 -10 3 -4 5 12 5 17 0 24 -2 18
-5z m463 -28 c4 -25 1 -43 -11 -61 -16 -25 -16 -28 -1 -36 20 -11 12 -28 -15
-28 -24 0 -26 45 -4 74 8 11 15 29 15 39 0 16 -3 17 -15 7 -12 -10 -15 -10
-15 2 0 15 19 38 32 38 4 0 10 -16 14 -35z m1402 -417 c-7 -4 -22 -7 -33 -7
-19 0 -19 1 2 9 30 12 35 35 33 168 -1 64 0 151 1 192 2 41 5 -21 6 -139 3
-165 0 -216 -9 -223z m2332 428 c0 -2 3 -13 7 -23 6 -16 5 -16 -10 -4 -22 17
-23 -1 -1 -33 20 -32 16 -131 -6 -131 -8 0 -16 8 -18 17 -3 14 1 16 15 11 17
-7 17 -6 0 20 -23 35 -25 147 -2 147 8 0 15 -2 15 -4z m-4031 -83 c-1 -59 -3
-71 -9 -50 -16 51 -15 127 0 127 6 0 10 -32 9 -77z m687 -80 c0 -129 0 -133
-3 -30 -3 90 -7 117 -17 117 -18 0 -27 35 -13 49 28 28 33 9 33 -136z m1771
-40 c-2 -21 -4 -6 -4 32 0 39 2 55 4 38 2 -18 2 -50 0 -70z m-1158 7 c1 -13
-1 -13 -8 -1 -8 12 -11 9 -17 -13 -4 -16 -2 -32 5 -39 8 -8 11 -8 11 2 0 7 4
10 9 7 5 -4 5 -18 -2 -36 l-11 -29 -13 31 c-16 38 -16 69 -1 103 11 24 13 25
19 8 4 -10 8 -25 8 -33z m369 8 c-1 -37 -2 -39 -5 -10 -4 29 -7 32 -39 32 -19
0 -34 5 -34 10 0 6 18 10 40 10 l40 0 -2 -42z m1590 -173 c-2 -1 -14 -6 -28
-10 -24 -7 -24 -7 -5 8 17 13 21 31 25 114 l5 98 3 -104 c1 -57 1 -105 0 -106z
m419 143 c-2 -13 -4 -3 -4 22 0 25 2 35 4 23 2 -13 2 -33 0 -45z m-2657 -108
c0 -82 -3 -150 -7 -150 -5 0 -7 67 -5 150 2 82 5 150 8 150 2 0 4 -67 4 -150z
m1059 43 c1 -18 -2 -33 -6 -33 -5 0 -8 33 -9 73 -1 60 0 66 7 32 4 -22 8 -55
8 -72z m-1117 78 c-13 -8 -14 -111 -1 -111 5 0 9 -4 9 -10 0 -5 -8 -10 -18
-10 -15 0 -18 9 -19 57 -2 60 11 98 29 87 7 -4 7 -9 0 -13z m-323 -66 c0 -63
-13 -91 -30 -64 -13 20 -11 29 5 23 10 -4 13 5 12 40 -1 32 -5 45 -13 41 -14
-5 -18 7 -6 18 21 22 31 3 32 -58z m-303 31 c3 -13 -1 -40 -10 -60 -13 -31
-13 -36 0 -36 7 0 14 -4 14 -10 0 -5 -10 -10 -21 -10 -18 0 -20 4 -15 28 15
67 18 97 7 82 -9 -12 -11 -11 -11 8 0 30 28 29 36 -2z m-306 -78 c0 -78 -17
-85 -20 -8 -4 63 -1 80 10 80 6 0 10 -31 10 -72z m3647 30 c-3 -7 -5 -2 -5 12
0 14 2 19 5 13 2 -7 2 -19 0 -25z m3707 -43 c8 -9 38 -21 66 -28 27 -6 50 -15
50 -18 0 -9 -55 -19 -104 -19 -58 0 -80 17 -67 53 12 30 32 35 55 12z m-6024
-35 c0 -22 -3 -40 -8 -40 -4 0 -6 18 -4 40 2 22 6 40 8 40 2 0 4 -18 4 -40z
m720 13 c0 -50 -11 -73 -34 -72 -14 0 -16 2 -6 6 24 9 31 26 25 61 -4 19 -2
32 5 32 5 0 10 -12 10 -27z m377 -15 c-3 -8 -6 -5 -6 6 -1 11 2 17 5 13 3 -3
4 -12 1 -19z m393 -8 c0 -5 -2 -10 -4 -10 -2 0 -12 -3 -22 -7 -16 -6 -17 -5
-4 10 17 19 30 22 30 7z m4045 -3 c61 -16 48 -26 -42 -33 -79 -6 -111 7 -79
31 24 18 55 19 121 2z m414 -13 c2 -2 -34 -4 -80 -3 -57 0 -78 3 -64 9 18 8
134 3 144 -6z m-6622 -36 c-3 -7 -5 -2 -5 12 0 14 2 19 5 13 2 -7 2 -19 0 -25z
m1768 22 c-3 -5 -11 -10 -16 -10 -6 0 -7 5 -4 10 3 6 11 10 16 10 6 0 7 -4 4
-10z m3879 -7 c31 -9 -2 -23 -55 -23 -52 0 -64 7 -47 27 11 14 47 13 102 -4z
m-4988 -29 c-11 -8 -27 -14 -35 -13 -14 0 -14 1 -1 6 8 4 21 12 29 20 7 8 16
11 20 8 3 -4 -3 -13 -13 -21z m-666 -34 c-8 -5 -19 -10 -25 -10 -5 0 -3 5 5
10 8 5 20 10 25 10 6 0 3 -5 -5 -10z m4398 3 c-15 -2 -42 -2 -60 0 -18 2 -6 4
27 4 33 0 48 -2 33 -4z m4892 -19 c0 -3 -7 -13 -16 -21 -15 -15 -13 -18 20
-35 34 -18 36 -20 34 -69 0 -36 4 -54 14 -60 11 -6 12 -18 4 -62 l-10 -55 -18
23 c-10 13 -18 35 -18 49 0 32 -12 34 -25 4 -6 -13 -17 -23 -25 -23 -21 0 -36
139 -19 175 7 14 11 37 10 53 -2 23 1 27 23 27 14 0 26 -3 26 -6z m-820 -53
c0 -20 6 -30 20 -34 26 -7 26 -27 1 -34 -13 -3 -21 -15 -23 -36 -4 -45 -28
-47 -28 -3 0 25 -4 36 -15 36 -22 0 -18 27 5 40 12 6 20 21 20 35 0 14 5 25
10 25 6 0 10 -13 10 -29z m-707 -51 c-5 -41 -3 -50 10 -50 20 0 29 26 21 66
-7 38 10 48 20 12 10 -40 6 -142 -7 -168 -14 -28 -46 -38 -58 -18 -16 25 -10
39 15 32 18 -4 25 -1 29 15 4 17 0 21 -18 21 -38 0 -55 84 -28 133 13 23 21 0
16 -43z m-638 -11 c-5 -22 -3 -29 9 -29 12 0 16 10 16 36 0 22 4 33 11 29 6
-4 9 -26 8 -49 -1 -22 1 -55 5 -72 7 -32 -7 -84 -23 -84 -5 0 -7 18 -4 40 5
32 2 40 -10 40 -19 0 -26 -19 -16 -46 4 -11 3 -27 -1 -34 -14 -23 -33 39 -24
80 4 19 6 47 5 62 -3 36 8 70 20 62 6 -3 7 -19 4 -35z m2249 15 c7 -18 0 -34
-15 -34 -5 0 -9 11 -9 25 0 28 15 34 24 9z m-3520 -10 c9 -8 16 -20 16 -25 0
-5 16 -9 35 -9 24 0 35 5 35 15 0 22 35 38 49 21 6 -7 22 -11 36 -9 29 6 38
-18 33 -93 -3 -46 -5 -49 -30 -49 -15 -1 -30 -4 -34 -8 -4 -4 -16 -7 -26 -7
-12 0 -23 -11 -30 -31 -8 -25 -15 -30 -37 -27 -21 2 -26 8 -27 33 -1 50 -15
85 -34 85 -12 0 -20 -10 -24 -31 -3 -18 -11 -29 -18 -27 -9 3 -14 31 -16 81
-3 73 -1 78 20 87 32 12 35 12 52 -6z m-473 -12 c8 -12 20 -17 35 -14 14 2 24
0 24 -7 0 -19 32 -12 37 9 15 56 37 -20 29 -99 -3 -24 -8 -46 -11 -50 -4 -3
-28 -7 -53 -8 -26 -1 -66 -5 -89 -8 -40 -7 -43 -5 -54 21 -16 42 -5 145 17
161 25 18 52 16 65 -5z m1189 6 c0 -7 -7 -34 -14 -59 -8 -26 -17 -72 -21 -103
-10 -81 -29 -72 -22 12 3 37 9 77 12 88 5 16 2 23 -14 27 -14 3 -18 10 -14 26
4 16 13 21 39 21 21 0 34 -5 34 -12z m-1702 -16 c18 -18 58 -22 80 -8 18 11
23 -13 20 -90 l-3 -69 -34 -3 c-18 -2 -38 1 -44 7 -6 6 -17 5 -32 -5 -18 -12
-24 -12 -41 0 -16 13 -17 18 -7 35 8 13 9 22 3 26 -6 3 -10 28 -10 55 0 36 5
52 18 59 24 14 29 14 50 -7z m-1245 -34 c2 -7 0 -22 -6 -32 -5 -11 -7 -52 -4
-93 4 -57 3 -73 -8 -73 -20 0 -23 17 -18 105 5 90 8 105 22 105 5 0 11 -6 14
-12z m107 -9 c-2 -8 -4 -53 -4 -102 -1 -54 -5 -86 -11 -84 -15 5 -18 33 -10
124 5 57 11 83 18 80 7 -3 10 -11 7 -18z m-443 -51 c-2 -13 -4 -3 -4 22 0 25
2 35 4 23 2 -13 2 -33 0 -45z m-94 15 c-8 -52 -13 -54 -13 -5 0 23 4 42 9 42
6 0 7 -17 4 -37z m-1506 -25 c-2 -13 -4 -5 -4 17 -1 22 1 32 4 23 2 -10 2 -28
0 -40z m1128 -10 c0 -27 -4 -47 -10 -45 -5 1 -8 7 -6 12 13 35 12 55 -3 55
-13 0 -16 -13 -16 -74 0 -41 -4 -78 -10 -81 -6 -4 -10 21 -10 67 0 97 7 120
34 116 18 -3 21 -10 21 -50z m-2544 -235 l-10 -48 4 49 c3 27 6 101 7 165 l2
116 3 -117 c2 -64 -1 -139 -6 -165z m2098 217 c-10 -33 -10 -48 0 -76 12 -34
9 -55 -6 -41 -12 13 -15 112 -4 141 17 43 24 24 10 -24z m50 -21 c1 -49 -9
-99 -21 -99 -5 0 -6 10 -2 23 4 12 7 51 7 87 -1 43 2 58 7 45 5 -11 9 -36 9
-56z m-1461 -21 c-1 -82 -1 -82 -7 -23 -3 33 -4 70 -2 83 7 45 11 20 9 -60z
m313 7 c-6 -24 -11 -58 -11 -74 0 -17 -4 -31 -10 -31 -5 0 -10 15 -10 33 0 17
-3 57 -6 87 -5 52 -4 54 10 30 l14 -25 8 30 c6 22 9 25 12 11 2 -10 -1 -38 -7
-61z m370 -88 c-6 -15 -17 -27 -26 -27 -22 0 -30 43 -26 135 2 42 4 46 12 27
5 -13 7 -28 4 -33 -8 -13 6 -79 16 -79 5 0 9 29 9 63 0 35 3 67 8 71 11 12 14
-127 3 -157z m354 -5 c-14 -14 -16 14 -9 90 l9 83 3 -84 c2 -46 0 -86 -3 -89z
m-2360 76 c0 -40 -2 -173 -3 -295 l-2 -223 -22 0 c-13 0 -18 3 -12 8 19 12 24
70 25 334 1 142 5 256 9 253 4 -2 6 -37 5 -77z m982 60 c-3 -8 -6 -5 -6 6 -1
11 2 17 5 13 3 -3 4 -12 1 -19z m-670 -3 c0 -8 -4 -15 -9 -15 -4 0 -8 7 -8 15
0 8 4 15 8 15 5 0 9 -7 9 -15z m273 -15 c0 -11 -6 -20 -14 -20 -24 0 -30 -21
-7 -27 27 -7 27 -33 1 -40 -26 -7 -26 -19 1 -26 30 -8 21 -42 -11 -42 -23 0
-25 4 -28 55 -5 87 4 120 33 120 18 0 25 -5 25 -20z m357 -59 c-2 -44 -5 -83
-8 -86 -9 -8 -20 90 -13 109 3 9 1 16 -5 16 -7 0 -11 -24 -11 -65 0 -37 -4
-65 -10 -65 -11 0 -14 111 -4 148 4 15 14 22 30 22 22 0 23 -2 21 -79z m343
59 c0 -11 -4 -20 -10 -20 -6 0 -10 -30 -10 -70 0 -40 -4 -70 -10 -70 -6 0 -10
26 -10 59 0 32 -3 73 -6 90 -6 28 -4 31 20 31 19 0 26 -5 26 -20z m-1020 -15
c0 10 3 15 7 11 8 -7 6 -78 -3 -138 -6 -41 -24 -52 -25 -15 0 22 0 22 -10 -2
-15 -39 -28 -13 -35 72 -5 55 -4 77 5 77 6 0 11 -6 11 -12 0 -7 6 -4 12 6 11
19 11 19 24 1 14 -18 14 -18 14 0z m-563 -27 c-3 -8 -6 -5 -6 6 -1 11 2 17 5
13 3 -3 4 -12 1 -19z m241 10 c15 -15 17 -162 2 -153 -5 3 -10 31 -10 61 0 30
-4 54 -10 54 -13 0 -13 -55 -1 -98 11 -36 -2 -44 -20 -11 -22 43 -8 159 19
159 5 0 13 -5 20 -12z m371 -75 l-2 -88 -8 75 c-9 70 -7 100 6 100 3 0 4 -39
4 -87z m-748 56 c-2 -8 -6 -34 -8 -59 -7 -60 -13 -64 -13 -9 0 24 -3 55 -7 68
-5 19 -3 22 13 19 11 -2 17 -11 15 -19z m68 -10 c8 -18 11 -45 8 -66 -7 -43
-13 -49 -30 -34 -8 6 -22 9 -31 5 -12 -5 -16 0 -16 19 0 14 5 29 10 32 6 4 8
15 5 26 -4 13 -2 19 9 19 9 0 16 7 16 15 0 25 14 17 29 -16z m9996 11 c3 -5
-1 -10 -9 -10 -9 0 -16 5 -16 10 0 6 4 10 9 10 6 0 13 -4 16 -10z m-8658 -222
c-2 -29 -3 -8 -3 47 0 55 1 79 3 53 2 -26 2 -71 0 -100z m710 0 c-2 -18 -4 -6
-4 27 0 33 2 48 4 33 2 -15 2 -42 0 -60z m370 30 c-3 -8 -6 -5 -6 6 -1 11 2
17 5 13 3 -3 4 -12 1 -19z m-1740 -55 c-2 -16 -4 -5 -4 22 0 28 2 40 4 28 2
-13 2 -35 0 -50z m3752 -18 c1 -63 0 -65 -24 -65 -17 0 -25 6 -26 18 -2 35 3
57 17 65 8 4 14 15 14 24 0 14 -2 14 -15 -3 -14 -19 -14 -19 -15 2 0 11 5 25
12 32 22 22 36 -6 37 -73z m-4362 -12 c-2 -16 -4 -3 -4 27 0 30 2 43 4 28 2
-16 2 -40 0 -55z m913 62 c0 -8 -4 -15 -10 -15 -5 0 -10 -7 -10 -15 0 -8 5
-15 11 -15 5 0 7 -5 3 -12 -13 -21 -14 -62 -1 -70 9 -6 9 -10 0 -19 -19 -19
-36 37 -28 95 3 28 8 53 11 58 9 13 24 9 24 -7z m1437 -67 c-2 -13 -4 -3 -4
22 0 25 2 35 4 23 2 -13 2 -33 0 -45z m5456 -41 c-3 -31 -10 -57 -14 -57 -11
0 -12 124 -2 134 14 14 22 -22 16 -77z m-7196 11 c-3 -7 -5 -2 -5 12 0 14 2
19 5 13 2 -7 2 -19 0 -25z m320 -35 c-2 -16 -4 -5 -4 22 0 28 2 40 4 28 2 -13
2 -35 0 -50z m330 0 c-3 -10 -5 -2 -5 17 0 19 2 27 5 18 2 -10 2 -26 0 -35z
m2280 -25 c-3 -8 -6 -5 -6 6 -1 11 2 17 5 13 3 -3 4 -12 1 -19z m823 12 c0 -6
-7 -13 -15 -16 -20 -8 -48 3 -40 16 8 13 55 13 55 0z m-3752 -72 l-3 -73 -35
-1 c-24 -1 -27 0 -9 3 29 5 39 31 39 104 0 22 3 39 6 39 3 0 4 -33 2 -72z
m649 0 c-2 -13 -4 -5 -4 17 -1 22 1 32 4 23 2 -10 2 -28 0 -40z m350 -25 c-2
-16 -4 -3 -4 27 0 30 2 43 4 28 2 -16 2 -40 0 -55z m360 45 c-3 -7 -5 -2 -5
12 0 14 2 19 5 13 2 -7 2 -19 0 -25z m2949 0 c-5 -29 -4 -31 8 -15 7 9 22 17
34 17 11 0 23 6 25 13 4 9 8 8 16 -3 6 -8 16 -15 23 -16 7 0 25 -2 39 -2 25
-2 26 -4 22 -49 -3 -27 -9 -52 -14 -57 -12 -13 -193 -15 -201 -2 -10 14 -10
130 -1 139 3 4 17 7 31 7 22 0 24 -3 18 -32z m-3999 -75 c-3 -2 -25 -6 -49 -9
l-43 -4 43 11 c33 8 42 15 43 32 2 21 2 21 6 -1 3 -13 2 -26 0 -29z m333 -3
c-8 -5 -28 -9 -45 -8 l-30 1 28 4 c16 3 31 11 34 19 4 11 9 12 17 4 8 -8 7
-13 -4 -20z m1849 -11 c-8 -5 -23 -8 -34 -7 -17 1 -16 1 3 5 13 3 26 12 29 21
5 12 8 13 11 3 2 -7 -2 -17 -9 -22z m-1489 1 c0 -5 -12 -10 -27 -9 l-28 1 25
8 c14 4 26 8 28 9 1 1 2 -3 2 -9z m1097 4 c-3 -3 -12 -4 -19 -1 -8 3 -5 6 6 6
11 1 17 -2 13 -5z m-1774 -141 c-7 -2 -21 -2 -30 0 -10 3 -4 5 12 5 17 0 24
-2 18 -5z m-783 -130 c0 -31 -2 -54 -4 -52 -8 9 -12 109 -4 109 4 0 8 -25 8
-57z m600 32 c0 -8 -2 -15 -4 -15 -2 0 -6 7 -10 15 -3 8 -1 15 4 15 6 0 10 -7
10 -15z m680 -20 c0 -19 -4 -35 -8 -35 -4 0 -6 16 -4 35 2 19 6 35 8 35 2 0 4
-16 4 -35z m-351 -52 c-1 -44 -3 -52 -8 -33 -8 24 -4 90 5 90 2 0 4 -26 3 -57z
m-1169 11 c0 -22 -2 -25 -15 -14 -13 11 -15 8 -15 -20 0 -31 1 -32 23 -17 12
8 23 21 23 28 1 8 2 17 3 21 0 4 14 3 30 -2 22 -6 31 -5 35 6 4 11 11 12 24 5
14 -7 17 -19 15 -48 l-2 -38 10 44 c8 32 13 40 20 30 13 -22 11 -89 -3 -90 -7
-1 -25 -3 -40 -5 -16 -1 -28 1 -28 6 0 5 -7 7 -15 4 -8 -4 -15 -12 -15 -20 0
-8 -4 -14 -10 -14 -5 0 -10 7 -10 15 0 14 -18 20 -49 15 -29 -4 -42 61 -21
101 16 28 40 24 40 -7z m801 -1 c5 -14 6 -29 2 -32 -4 -3 -8 -33 -8 -66 0 -53
-2 -60 -20 -60 -14 0 -21 8 -23 28 -2 15 2 27 8 27 7 0 8 6 0 19 -19 37 -6
111 21 111 5 0 14 -12 20 -27z m-307 -5 c10 -37 7 -138 -4 -138 -5 0 -10 8
-10 18 -1 15 -2 15 -15 -2 -23 -30 -25 -16 -10 59 8 39 15 73 15 77 0 18 18 6
24 -14z m22 -247 c-9 -132 -16 -247 -16 -255 0 -11 -10 -16 -32 -16 -33 0 -33
0 -9 13 13 6 26 21 28 32 8 52 23 270 23 355 0 52 3 106 7 120 15 51 14 -12
-1 -249z m314 172 c0 -53 -3 -93 -7 -89 -5 4 -8 48 -8 97 0 49 3 89 8 89 4 0
7 -43 7 -97z m301 70 c10 -25 5 -95 -8 -129 -6 -16 -53 -19 -53 -4 0 5 9 14
19 20 23 12 38 67 22 83 -8 8 -11 2 -11 -21 0 -18 -4 -32 -10 -32 -11 0 -14
93 -3 103 14 15 34 6 44 -20z m347 9 c2 -7 -5 -16 -17 -19 -26 -7 -27 -21 -3
-39 16 -13 16 -15 0 -25 -10 -5 -18 -21 -18 -34 0 -13 -4 -27 -10 -30 -11 -7
-13 68 -3 128 5 31 10 37 26 35 11 -2 22 -9 25 -16z m340 -27 c3 -25 2 -27
-12 -16 -13 11 -16 9 -20 -11 -12 -52 -10 -88 4 -88 6 0 10 14 10 30 0 17 5
30 10 30 16 0 12 -76 -5 -90 -27 -22 -45 5 -45 67 0 87 49 154 58 78z m731
-57 c-8 -84 -13 -98 -35 -98 -10 0 -14 11 -13 38 1 20 3 29 6 20 9 -34 23 -18
23 26 0 56 11 110 20 99 4 -4 4 -43 -1 -85z m-396 15 c7 2 15 19 18 38 4 23 7
7 8 -48 0 -45 -3 -85 -9 -88 -6 -4 -10 7 -10 24 0 41 -17 40 -29 -1 -8 -29 -9
-23 -10 39 -1 81 12 134 17 70 2 -24 8 -37 15 -34z m765 29 c6 14 16 29 21 33
15 9 14 -1 -4 -36 -11 -20 -14 -45 -10 -82 5 -51 5 -51 -8 -19 -13 36 -27 33
-27 -5 0 -12 -5 -23 -11 -23 -7 0 -9 14 -5 38 3 20 8 60 12 87 l8 50 6 -35 7
-35 11 27z m1311 -39 c-1 -51 -3 -60 -9 -38 l-7 30 -8 -28 c-4 -15 -10 -26
-13 -23 -7 8 21 126 30 126 4 0 7 -30 7 -67z m-934 -18 c-6 -65 -5 -75 9 -75
9 0 16 -7 16 -15 0 -10 -10 -15 -26 -15 -26 0 -27 1 -20 46 3 26 6 66 6 90 0
26 5 44 11 44 8 0 9 -22 4 -75z m459 59 c9 -24 7 -44 -4 -44 -5 0 -10 7 -10
16 0 9 -6 14 -12 12 -25 -9 -32 -118 -7 -118 4 0 13 8 19 18 9 14 10 11 4 -13
-4 -16 -10 -45 -13 -64 -8 -47 -26 -49 -28 -3 -1 20 -5 63 -9 95 -7 67 9 117
36 117 10 0 21 -7 24 -16z m-3577 -26 c-3 -8 -6 -5 -6 6 -1 11 2 17 5 13 3 -3
4 -12 1 -19z m1330 -40 c-2 -13 -4 -3 -4 22 0 25 2 35 4 23 2 -13 2 -33 0 -45z
m2598 52 c3 -5 15 -10 26 -10 22 0 25 -22 5 -39 -10 -9 -16 -8 -26 4 -7 8 -21
15 -32 15 -16 0 -17 3 -8 20 12 22 25 26 35 10z m466 -79 c-2 -86 -14 -127
-32 -115 -6 3 -8 18 -4 32 3 15 6 60 7 100 1 59 4 72 16 70 12 -2 15 -19 13
-87z m99 22 c0 -89 -10 -145 -24 -140 -11 4 -11 20 -2 62 3 11 5 48 5 83 1 34
5 62 11 62 6 0 10 -29 10 -67z m-4440 0 c0 -27 -4 -43 -9 -37 -8 8 -4 84 5 84
2 0 4 -21 4 -47z m929 -45 c-2 -71 -2 -71 -9 -23 -6 46 -3 95 6 95 2 0 3 -33
3 -72z m6839 45 c3 -18 -2 -23 -17 -23 -26 0 -27 -12 -1 -28 16 -10 20 -23 20
-66 0 -66 -27 -108 -57 -90 -20 12 -28 37 -19 61 5 13 9 13 22 2 13 -10 17
-10 25 2 14 22 11 29 -16 39 -28 11 -33 44 -14 99 9 24 16 31 33 29 13 -2 22
-11 24 -25z m-616 -65 c4 -62 1 -89 -11 -112 l-16 -31 -6 65 c-3 36 -7 58 -8
50 -2 -8 -2 -25 -1 -37 1 -17 -4 -23 -19 -23 -29 0 -27 38 5 111 37 82 50 77
56 -23z m2686 56 c2 -12 14 -26 27 -32 34 -16 61 -60 46 -75 -6 -6 -11 -36
-11 -66 -1 -70 -27 -113 -53 -87 -8 9 -22 16 -29 17 -10 0 -10 2 0 6 6 2 12
12 12 20 0 14 -3 14 -20 -2 -22 -20 -23 -18 -36 50 -10 55 -8 114 5 188 0 5
13 7 29 5 19 -2 28 -9 30 -24z m157 17 c7 -12 -12 -24 -25 -16 -11 7 -4 25 10
25 5 0 11 -4 15 -9z m-1597 -39 c3 -18 -1 -22 -19 -20 -12 2 -24 -3 -27 -11
-3 -9 0 -11 7 -6 22 13 51 -25 50 -64 -1 -49 -12 -84 -27 -89 -9 -3 -11 10 -6
53 6 47 4 57 -7 53 -9 -3 -15 -23 -17 -56 -4 -63 -17 -67 -32 -10 -20 72 14
182 54 176 13 -2 22 -12 24 -26z m687 -47 c0 -34 -3 -40 -22 -43 -20 -3 -23 1
-23 26 0 43 10 63 29 60 12 -2 16 -14 16 -43z m-9103 -155 c-9 -103 -22 -131
-49 -108 -16 13 -7 29 15 26 14 -3 17 7 18 62 1 36 5 94 10 130 13 98 17 18 6
-110z m1285 113 c-3 -10 -5 -4 -5 12 0 17 2 24 5 18 2 -7 2 -21 0 -30z m-682
-120 c-9 -187 -8 -183 -58 -181 -37 1 -38 2 -9 5 19 3 32 10 32 19 0 8 4 14 8
14 4 0 9 30 10 68 2 85 13 202 19 202 3 0 2 -57 -2 -127z m5725 61 c0 -56 15
-55 49 5 22 40 45 60 57 48 3 -2 -4 -20 -15 -38 -27 -44 -27 -53 9 -140 16
-40 27 -75 25 -77 -12 -12 -34 11 -47 49 -11 32 -21 45 -41 50 -33 9 -37 4
-37 -48 0 -23 -4 -43 -9 -43 -9 0 -21 226 -13 243 9 20 22 -9 22 -49z m218
-22 c24 -40 48 -72 53 -72 5 0 9 34 9 76 0 56 3 75 13 72 8 -3 13 -42 15 -137
2 -102 0 -132 -10 -129 -15 5 -97 137 -98 156 0 8 -6 12 -12 10 -9 -3 -12 -27
-9 -81 2 -65 0 -77 -13 -77 -14 0 -16 18 -16 131 0 98 3 130 12 127 7 -3 32
-37 56 -76z m147 -26 l7 -104 38 -4 c21 -2 44 -2 49 0 7 2 11 43 11 109 0 79
3 104 13 101 8 -3 13 -42 15 -135 2 -119 1 -131 -16 -135 -30 -8 -133 4 -137
16 -7 23 -15 243 -8 249 16 17 21 0 28 -97z m223 75 c5 -31 -11 -45 -42 -37
-19 5 -26 13 -26 30 0 29 5 33 38 32 20 -1 28 -7 30 -25z m-5986 -164 c-5 -59
-12 -110 -16 -114 -11 -11 -19 6 -8 19 5 7 14 74 18 148 5 74 10 117 12 95 2
-23 -1 -89 -6 -148z m345 151 c-3 -8 -6 -5 -6 6 -1 11 2 17 5 13 3 -3 4 -12 1
-19z m0 -65 c-3 -10 -5 -4 -5 12 0 17 2 24 5 18 2 -7 2 -21 0 -30z m350 -30
c-2 -16 -4 -5 -4 22 0 28 2 40 4 28 2 -13 2 -35 0 -50z m-1650 -5 c-3 -7 -5
-2 -5 12 0 14 2 19 5 13 2 -7 2 -19 0 -25z m6933 -3 c0 -19 -4 -35 -9 -35 -6
0 -11 -21 -13 -47 -2 -26 -9 -48 -15 -51 -10 -3 -13 18 -13 82 0 85 0 86 25
86 22 0 25 -4 25 -35z m-2501 -7 c12 -34 -1 -109 -22 -122 -26 -16 -39 9 -34
66 6 70 39 102 56 56z m-3142 -45 c-3 -10 -5 -2 -5 17 0 19 2 27 5 18 2 -10 2
-26 0 -35z m8638 6 c5 -5 -12 -9 -43 -9 -29 0 -52 4 -52 9 0 5 9 7 20 4 12 -3
20 0 20 7 0 12 37 5 55 -11z m-8648 -101 c-2 -13 -4 -3 -4 22 0 25 2 35 4 23
2 -13 2 -33 0 -45z m360 15 c-3 -10 -5 -2 -5 17 0 19 2 27 5 18 2 -10 2 -26 0
-35z m370 15 c-3 -7 -5 -2 -5 12 0 14 2 19 5 13 2 -7 2 -19 0 -25z m1160 -40
c-3 -8 -6 -5 -6 6 -1 11 2 17 5 13 3 -3 4 -12 1 -19z m1263 -8 c0 -5 -13 -10
-30 -10 -16 0 -30 5 -30 10 0 6 14 10 30 10 17 0 30 -4 30 -10z m-3177 -7 c-7
-2 -19 -2 -25 0 -7 3 -2 5 12 5 14 0 19 -2 13 -5z m377 -8 c0 -8 -7 -15 -15
-15 -13 0 -14 3 -3 15 16 18 18 18 18 0z m367 -17 c-3 -8 -6 -5 -6 6 -1 11 2
17 5 13 3 -3 4 -12 1 -19z m4570 -10 c-3 -8 -6 -5 -6 6 -1 11 2 17 5 13 3 -3
4 -12 1 -19z m40 -10 c-3 -8 -6 -5 -6 6 -1 11 2 17 5 13 3 -3 4 -12 1 -19z
m30 -10 c-3 -7 -5 -2 -5 12 0 14 2 19 5 13 2 -7 2 -19 0 -25z m58 22 c3 -5 1
-10 -4 -10 -6 0 -11 5 -11 10 0 6 2 10 4 10 3 0 8 -4 11 -10z m-118 -36 c-3
-3 -12 -4 -19 -1 -8 3 -5 6 6 6 11 1 17 -2 13 -5z m140 -16 c-3 -8 -6 -5 -6 6
-1 11 2 17 5 13 3 -3 4 -12 1 -19z m468 -29 c9 -14 3 -19 -28 -25 -27 -4 -43
9 -32 26 8 13 52 13 60 -1z m-6878 -5 c-3 -3 -12 -4 -19 -1 -8 3 -5 6 6 6 11
1 17 -2 13 -5z m8109 -39 c8 -21 -16 -49 -30 -35 -5 5 -18 10 -29 10 -23 0
-13 18 17 30 30 13 36 12 42 -5z m-8206 -42 c0 -65 -13 -134 -22 -121 -6 8 -7
0 -4 -23 4 -20 -3 -115 -14 -212 -11 -98 -20 -184 -20 -192 0 -11 -11 -15 -42
-14 -24 1 -34 4 -23 6 31 8 40 19 43 52 1 17 7 42 12 56 6 15 14 76 20 136 5
60 12 115 16 121 4 7 3 8 -4 4 -8 -5 -12 5 -11 31 1 63 14 128 25 126 13 -2
12 40 -1 49 -6 4 -2 8 8 8 12 0 17 -8 17 -27z m260 -188 c-6 -71 -16 -167 -21
-212 -10 -77 -14 -118 -18 -170 -1 -18 -7 -23 -28 -22 -26 0 -26 1 -7 9 17 7
22 20 27 67 3 32 11 101 16 153 19 186 21 211 11 205 -6 -4 -5 6 1 22 6 15 13
48 14 73 5 69 8 78 12 40 3 -19 0 -93 -7 -165z m-346 133 c9 -37 7 -128 -4
-128 -5 0 -10 10 -10 23 0 12 -3 46 -6 75 -7 53 8 74 20 30z m693 0 c-3 -8 -6
-5 -6 6 -1 11 2 17 5 13 3 -3 4 -12 1 -19z m333 7 c0 -8 -2 -15 -4 -15 -2 0
-6 7 -10 15 -3 8 -1 15 4 15 6 0 10 -7 10 -15z m-700 -24 c0 -10 -7 -38 -15
-62 -10 -28 -12 -45 -5 -47 19 -7 11 -42 -10 -42 -29 0 -34 23 -16 76 9 26 13
57 10 70 -5 20 -2 24 15 24 14 0 21 -6 21 -19z m1035 -66 c-4 -42 -10 -74 -12
-71 -3 2 -2 39 2 81 4 42 10 74 12 71 3 -2 2 -39 -2 -81z m-718 62 c13 16 14
15 7 -17 -5 -19 -7 -59 -6 -87 1 -29 -3 -53 -8 -53 -6 0 -10 10 -10 23 l-1 22
-13 -24 c-20 -36 -28 -9 -10 34 9 22 13 49 9 66 -4 16 -3 34 2 41 5 10 8 8 11
-5 4 -18 4 -18 19 0z m363 -129 c-6 -68 -14 -125 -17 -128 -5 -4 2 108 13 210
1 14 3 31 3 39 1 8 4 12 7 8 3 -3 1 -61 -6 -129z m705 7 l-14 -90 5 80 c5 90
16 153 21 120 1 -11 -4 -60 -12 -110z m-1028 63 c-2 -13 -4 -5 -4 17 -1 22 1
32 4 23 2 -10 2 -28 0 -40z m303 11 c0 -22 -16 -34 -23 -17 -4 10 -8 9 -16 -2
-14 -19 -14 -80 -1 -80 6 0 10 5 10 10 0 6 5 10 11 10 6 0 8 -9 3 -22 -20 -67
-54 -52 -54 23 0 51 14 99 33 111 15 9 37 -10 37 -33z m311 -44 c5 4 9 17 9
30 0 13 5 27 10 30 14 9 13 -8 -6 -84 -24 -98 -34 -97 -32 5 1 49 3 72 5 51 2
-20 8 -35 14 -32z m350 -5 c5 0 8 12 7 26 -2 16 3 29 10 32 11 3 13 -11 7 -74
-7 -79 -19 -109 -37 -98 -6 4 -6 10 1 17 14 14 14 47 1 47 -5 0 -10 -11 -10
-24 0 -14 -5 -28 -12 -32 -12 -8 -6 89 9 144 l8 27 3 -32 c2 -18 8 -33 13 -33z
m368 -11 c7 -36 9 -39 10 -14 1 17 6 37 12 45 10 15 7 -46 -7 -127 -8 -41 -24
-43 -24 -4 0 17 -4 33 -10 36 -6 4 -10 -7 -10 -24 0 -17 -5 -31 -11 -31 -6 0
-8 11 -5 28 2 15 8 50 11 77 11 81 20 84 34 14z m-1342 -41 c-2 -13 -4 -3 -4
22 0 25 2 35 4 23 2 -13 2 -33 0 -45z m1715 20 c4 -42 4 -42 12 -13 14 52 16
56 24 51 10 -6 -6 -158 -19 -170 -6 -6 -9 -3 -10 10 0 18 -1 18 -9 -1 -8 -19
-8 -19 -18 5 -7 17 -11 19 -11 8 -1 -9 -6 -20 -12 -24 -8 -4 -9 5 -6 32 4 22
9 63 13 92 8 66 31 72 36 10z m442 -33 c-14 -21 -15 -31 -5 -51 13 -29 14 -54
4 -54 -11 0 -33 50 -33 73 0 20 43 79 48 66 2 -4 -4 -19 -14 -34z m-1487 -37
c-2 -13 -4 -5 -4 17 -1 22 1 32 4 23 2 -10 2 -28 0 -40z m1901 25 c17 -37 15
-50 -9 -84 -29 -41 -45 -36 -19 7 19 29 21 40 11 60 -6 14 -11 29 -11 34 0 19
15 9 28 -17z m-516 -18 c-2 -14 -9 -28 -15 -32 -7 -4 -8 0 -4 11 4 10 7 27 7
37 0 11 4 18 9 15 4 -3 6 -17 3 -31z m858 5 c0 -11 -4 -20 -9 -20 -5 0 -7 9
-4 20 3 11 7 20 9 20 2 0 4 -9 4 -20z m80 -5 c0 -8 -4 -15 -10 -15 -5 0 -7 7
-4 15 4 8 8 15 10 15 2 0 4 -7 4 -15z m-535 -12 c-2 -10 -4 -21 -4 -25 -1 -5
-5 -8 -11 -8 -11 0 -14 33 -3 43 12 13 21 7 18 -10z m-2470 -78 c-4 -42 -10
-74 -12 -71 -3 2 -2 39 2 81 4 42 10 74 12 71 3 -2 2 -39 -2 -81z m3460 -8
c-10 -23 -14 -26 -14 -12 -1 11 3 27 9 35 5 9 5 19 -1 27 -6 7 -7 18 -3 25 15
25 23 -42 9 -75z m-2430 8 c-4 -31 -9 -54 -12 -51 -3 2 -1 30 2 61 4 31 9 54
12 51 3 -2 1 -30 -2 -61z m2301 -15 c-14 -40 -28 -76 -31 -78 -10 -10 -5 16
15 74 29 86 30 87 36 82 3 -3 -6 -38 -20 -78z m-2670 -78 c-9 -64 -18 -137
-21 -162 -6 -47 -19 -62 -44 -52 -13 6 -12 7 5 10 19 3 23 15 38 135 28 210
30 223 34 204 2 -10 -3 -71 -12 -135z m741 116 c-3 -8 -6 -5 -6 6 -1 11 2 17
5 13 3 -3 4 -12 1 -19z m2523 2 c0 -11 -7 -20 -15 -20 -21 0 -19 -12 5 -33 19
-16 20 -15 26 11 10 49 17 59 21 35 3 -13 8 -23 13 -23 5 0 12 -9 15 -20 10
-31 42 -25 50 10 4 16 11 33 17 36 14 9 30 -18 18 -30 -12 -12 -13 -26 -2 -26
5 0 13 10 19 22 l10 23 11 -22 c9 -15 9 -30 2 -48 -5 -14 -10 -40 -10 -56 0
-44 -24 -31 -28 14 -3 40 -22 41 -22 2 0 -13 -4 -27 -10 -30 -5 -3 -10 1 -10
11 0 13 -3 14 -14 5 -18 -15 -74 -10 -85 8 -6 10 -10 9 -14 -3 -7 -19 -42 -21
-53 -4 -4 6 0 16 9 23 19 13 23 35 7 35 -15 0 -22 43 -11 73 13 33 51 38 51 7z
m110 -14 c0 -8 -4 -17 -9 -21 -12 -7 -24 12 -16 25 9 15 25 12 25 -4z m-1130
-43 c-11 -17 -11 -17 -6 0 3 10 7 26 7 35 1 15 2 15 6 0 2 -10 -1 -25 -7 -35z
m86 10 c-11 -11 -19 6 -11 24 8 17 8 17 12 0 3 -10 2 -21 -1 -24z m2992 6 c2
-17 11 -29 22 -32 28 -7 44 -55 32 -92 -6 -16 -14 -60 -17 -97 -4 -37 -13 -75
-21 -85 -13 -17 -13 -17 -14 0 0 14 -9 17 -50 17 l-50 0 0 38 c0 21 -5 65 -11
98 -10 54 -1 145 18 177 3 4 24 7 46 5 37 -3 42 -6 45 -29z m-5672 -137 c-9
-70 -16 -131 -16 -135 0 -4 -12 -7 -27 -6 -27 0 -27 1 -6 11 26 12 30 27 38
138 7 103 17 161 22 138 3 -10 -3 -75 -11 -146z m1471 136 c-3 -8 -6 -5 -6 6
-1 11 2 17 5 13 3 -3 4 -12 1 -19z m3496 -38 c5 -22 5 -48 -2 -70 -5 -19 -14
-53 -18 -75 -6 -25 -15 -41 -26 -43 -15 -3 -17 6 -17 77 0 55 5 92 17 116 20
42 34 41 46 -5z m-4268 -97 c-9 -76 -17 -61 -8 18 3 35 8 58 11 51 2 -7 1 -38
-3 -69z m-1028 5 c-2 -13 -4 -5 -4 17 -1 22 1 32 4 23 2 -10 2 -28 0 -40z
m1790 20 c-3 -8 -6 -5 -6 6 -1 11 2 17 5 13 3 -3 4 -12 1 -19z m4620 -113
c-12 -118 -27 -132 -27 -27 0 48 -4 82 -10 82 -17 0 -11 21 12 46 20 20 24 21
29 6 3 -9 2 -57 -4 -107z m-5010 93 c-3 -8 -6 -5 -6 6 -1 11 2 17 5 13 3 -3 4
-12 1 -19z m5634 -9 c17 -33 4 -97 -26 -129 -26 -27 -26 -27 -5 -33 16 -4 21
-12 18 -29 -2 -19 -10 -24 -41 -26 -26 -2 -39 1 -43 12 -10 25 4 63 36 100 29
32 45 85 18 58 -18 -18 -28 -15 -28 10 0 24 27 58 46 58 7 0 18 -10 25 -21z
m-7046 -79 c-9 -41 -17 -33 -9 9 4 17 9 30 11 27 3 -2 2 -19 -2 -36z m7676 19
c6 -12 8 -35 5 -53 -4 -17 -6 -52 -6 -78 1 -52 -16 -88 -42 -88 -24 0 -46 36
-40 65 5 30 22 33 22 5 0 -11 6 -20 14 -20 21 0 28 31 11 50 -19 21 -19 34 0
50 16 13 21 50 7 50 -4 0 -13 -5 -20 -12 -18 -18 -27 -1 -14 27 14 31 47 33
63 4z m-4270 -60 c19 -36 -11 -139 -40 -139 -30 0 -30 110 -1 145 17 20 27 19
41 -6z m-2386 -38 c-4 -13 -15 -21 -28 -20 l-22 0 23 9 c12 5 22 17 22 26 0
10 3 15 6 11 3 -3 3 -15 -1 -26z m-1525 -11 c0 -5 -14 -7 -32 -3 -46 8 -48 13
-5 13 21 0 37 -4 37 -10z m1890 -30 c0 -5 -10 -10 -22 -9 -22 0 -22 1 -3 9 11
5 21 9 23 9 1 1 2 -3 2 -9z m3862 -15 c-2 -14 -6 -25 -8 -25 -2 0 -4 11 -4 25
0 14 4 25 9 25 4 0 6 -11 3 -25z m-3475 -20 c-4 -8 -14 -14 -24 -14 -17 1 -17
2 0 6 9 2 17 12 17 20 0 9 3 14 6 10 4 -3 4 -13 1 -22z m3433 -9 c0 -15 46
-16 68 -3 17 11 15 -8 -3 -23 -8 -7 -15 -19 -15 -27 0 -7 7 -16 15 -19 21 -9
19 -21 -6 -27 -19 -5 -21 -11 -15 -44 6 -34 5 -36 -7 -20 -20 24 -27 21 -27
-12 0 -17 -5 -33 -11 -37 -8 -5 -9 6 -4 36 6 37 5 42 -9 37 -46 -19 -51 -19
-28 1 28 25 29 52 2 52 -11 0 -20 5 -20 10 0 6 11 10 25 10 17 0 25 6 26 18 1
17 1 23 -9 56 -3 13 -1 17 6 12 7 -4 12 -13 12 -20z m-6150 -51 c0 -18 -4 -23
-15 -19 -11 5 -15 -1 -15 -21 0 -23 2 -26 15 -15 12 10 15 9 15 -8 0 -11 -7
-25 -16 -33 -23 -19 -36 6 -29 60 8 67 45 96 45 36z m453 -37 c-6 -72 -7 -75
-27 -59 -17 15 -18 57 0 72 8 6 14 20 14 30 0 11 4 19 9 19 5 0 6 -28 4 -62z
m-53 -22 c0 -41 -6 -46 -43 -39 -52 10 -28 69 31 72 7 1 12 -12 12 -33z m350
-62 c0 -36 -4 -64 -10 -64 -5 0 -10 8 -10 17 0 15 -2 14 -16 -3 -15 -18 -15
-17 -10 15 21 122 46 141 46 35z m6226 11 c-1 -31 -5 -44 -13 -41 -6 3 -14 -2
-17 -11 -6 -14 -8 -14 -21 3 -17 22 -19 38 -5 29 6 -4 10 8 10 29 0 31 3 36
23 36 21 0 23 -5 23 -45z m-6186 15 c1 20 3 21 8 8 10 -24 2 -108 -9 -108 -5
0 -9 10 -10 23 0 21 -1 21 -9 2 -7 -16 -9 -14 -9 15 0 19 2 46 6 60 l7 25 7
-25 7 -25 2 25z m57 -27 c-3 -10 -5 -2 -5 17 0 19 2 27 5 18 2 -10 2 -26 0
-35z m-407 -23 c0 -17 -28 -243 -34 -275 -2 -11 -7 -46 -10 -77 -4 -32 -12
-58 -17 -58 -6 0 -7 9 -2 23 4 12 7 45 7 72 -1 28 2 52 7 55 4 3 9 38 11 78 2
39 6 72 11 72 11 0 9 48 -3 55 -5 3 -10 12 -10 18 0 7 4 6 10 -3 8 -13 10 -12
10 3 0 9 -4 17 -10 17 -8 0 -8 31 0 70 2 11 30 -35 30 -50z m-64 30 c11 0 14
-10 12 -37 -4 -43 -15 -49 -47 -24 -19 14 -22 24 -17 46 5 19 11 25 22 21 9
-3 22 -6 30 -6z m7529 -167 c-3 -13 -10 -23 -16 -23 -12 0 -6 75 9 130 9 32
16 -72 7 -107z m-7495 57 c0 -5 -2 -10 -4 -10 -3 0 -8 5 -11 10 -3 6 -1 10 4
10 6 0 11 -4 11 -10z m1552 -10 c54 -5 102 -10 108 -10 12 0 13 -59 2 -78 -7
-10 -30 -10 -108 -2 -184 19 -184 19 -184 50 0 38 24 61 58 55 15 -3 71 -9
124 -15z m4990 -33 c3 -31 15 -34 34 -9 8 10 13 12 14 5 0 -7 -13 -22 -30 -35
-16 -12 -30 -28 -30 -36 0 -9 -10 -12 -32 -10 -30 3 -33 7 -36 38 -2 22 1 30
6 22 13 -19 39 -4 51 30 13 35 20 34 23 -5z m-6600 6 c9 -35 -4 -103 -18 -103
-21 0 -27 24 -20 75 7 46 29 62 38 28z m475 -35 c-3 -7 -5 -2 -5 12 0 14 2 19
5 13 2 -7 2 -19 0 -25z m-12 -105 c-4 -43 -12 -82 -17 -88 -7 -7 -8 6 -2 40 4
28 9 66 10 85 3 42 3 40 10 40 3 0 3 -35 -1 -77z m2575 -5 c0 -50 -3 -68 -10
-58 -5 8 -7 32 -3 53 4 24 2 37 -6 37 -6 0 -11 -9 -11 -19 0 -24 -19 -75 -25
-69 -5 4 22 104 32 121 14 23 23 -2 23 -65z m6718 25 c2 -25 8 -33 22 -33 36
0 52 -40 41 -106 -5 -33 -7 -62 -4 -66 5 -10 -28 -68 -39 -68 -4 0 -8 -4 -8
-10 0 -5 5 -9 11 -7 6 1 14 -4 16 -10 3 -10 -11 -13 -51 -13 -46 0 -54 3 -50
15 5 12 9 13 20 4 16 -13 21 -11 24 11 5 33 0 42 -20 37 -11 -3 -20 -1 -20 4
0 5 11 9 24 9 21 0 24 5 24 40 1 23 -3 38 -9 35 -5 -4 -9 -17 -9 -31 0 -28
-28 -44 -41 -23 -5 8 -9 26 -9 41 0 15 -5 38 -11 52 -9 20 -8 33 5 66 9 22 16
52 16 66 0 23 4 25 33 22 28 -3 32 -7 35 -35z m-6677 -44 c-6 -37 -9 -44 -10
-23 -1 37 11 104 16 88 2 -5 -1 -35 -6 -65z m99 55 c0 -8 -4 -13 -9 -9 -6 3
-14 -3 -20 -12 -14 -23 -14 -7 -1 18 13 23 30 25 30 3z m-69 -65 c-8 -51 -9
-52 -10 -14 -1 42 10 97 16 79 2 -6 -1 -35 -6 -65z m-1522 -35 c0 -52 -3 -103
-8 -112 -4 -9 -5 -46 -1 -82 8 -64 6 -84 -8 -64 -4 5 -19 17 -34 27 -22 14
-28 25 -28 52 0 27 -7 39 -30 56 -27 21 -28 24 -16 48 7 14 21 43 30 64 11 27
21 37 31 33 10 -4 22 8 35 34 11 22 22 40 24 40 2 0 4 -43 5 -96z m1612 34
l-9 -33 -1 36 c-1 20 2 39 6 43 13 12 15 -10 4 -46z m439 32 c0 -5 -6 -10 -14
-10 -23 0 -31 -22 -12 -32 20 -11 21 -28 1 -28 -8 0 -19 -15 -24 -32 -9 -29
-10 -27 -5 17 8 83 13 95 34 95 11 0 20 -4 20 -10z m2445 -20 c8 -12 -52 -12
-80 0 -15 6 -8 9 27 9 26 1 50 -3 53 -9z m-2938 -40 c4 -10 9 -5 13 15 8 30 8
30 9 -7 1 -26 -3 -38 -13 -38 -16 0 -26 22 -25 53 0 14 2 17 6 7 2 -8 7 -22
10 -30z m5653 25 c16 -19 4 -35 -26 -35 -30 0 -32 -18 -1 -22 14 -2 22 -10 22
-23 0 -13 -8 -21 -22 -23 -13 -2 -23 -7 -23 -12 0 -5 10 -10 23 -12 14 -2 23
-11 25 -26 3 -21 0 -23 -35 -20 l-38 3 -3 70 c-4 97 2 115 37 115 16 0 34 -7
41 -15z m-5111 -47 l-2 -43 -7 35 c-6 33 -7 34 -13 10 -3 -14 -8 -34 -10 -45
-3 -13 -5 -9 -6 10 -1 43 9 75 25 75 10 0 14 -12 13 -42z m5244 -54 c-2 -95
-19 -110 -25 -23 -5 74 0 111 16 106 7 -2 10 -32 9 -83z m-4736 34 c-3 -7 -5
-2 -5 12 0 14 2 19 5 13 2 -7 2 -19 0 -25z m4688 -35 c0 -36 -4 -63 -10 -63
-5 0 -10 16 -10 34 0 19 -3 38 -7 42 -5 4 -8 -7 -8 -24 0 -38 -9 -64 -21 -56
-11 6 -12 117 -2 128 4 4 19 6 33 4 24 -3 25 -6 25 -65z m-4715 19 c0 -7 -4
-10 -10 -7 -5 3 -10 16 -10 28 0 18 2 19 10 7 5 -8 10 -21 10 -28z m4834 16
c14 -19 16 -20 16 -4 0 10 6 16 13 13 6 -2 11 -15 9 -28 -2 -13 -6 -43 -9 -66
-6 -50 -23 -48 -23 3 0 19 -4 33 -9 29 -6 -3 -14 3 -20 12 -9 16 -10 15 -11
-8 0 -15 7 -29 15 -33 19 -7 20 -32 1 -39 -22 -9 -36 14 -36 61 0 44 14 82 30
82 5 0 16 -10 24 -22z m-4764 4 c0 -5 -7 -17 -16 -28 -8 -10 -14 -14 -11 -9 2
6 7 18 10 28 7 17 17 23 17 9z m-3793 -34 c-3 -7 -5 -2 -5 12 0 14 2 19 5 13
2 -7 2 -19 0 -25z m4281 20 c14 -14 16 -58 3 -58 -6 0 -13 5 -16 10 -11 18
-25 0 -25 -31 0 -26 3 -29 21 -24 17 6 20 3 17 -16 -2 -12 -11 -27 -21 -33
-45 -28 -63 98 -21 145 20 22 26 23 42 7z m2432 -18 c0 -5 9 -10 19 -10 11 0
23 -4 26 -10 8 -12 -54 -13 -74 -1 -7 5 -10 14 -7 20 9 14 36 15 36 1z m-2370
-19 c0 -5 18 -8 41 -6 l41 4 -7 -47 c-3 -26 -8 -55 -11 -64 -10 -33 -24 -18
-25 25 l-1 42 -10 -37 c-9 -34 -38 -55 -60 -42 -9 6 -11 95 -2 118 7 17 34 22
34 7z m-645 -21 c3 -5 -1 -10 -9 -10 -9 0 -16 5 -16 10 0 6 4 10 9 10 6 0 13
-4 16 -10z m59 -16 c10 -25 7 -61 -8 -101 -8 -21 -17 -47 -20 -57 -12 -37 -27
0 -27 68 -1 51 4 72 17 87 21 23 30 24 38 3z m46 1 c0 -8 -4 -15 -10 -15 -5 0
-10 7 -10 15 0 8 5 15 10 15 6 0 10 -7 10 -15z m1138 -11 c39 -19 43 -25 35
-52 -3 -14 -18 -25 -42 -32 -49 -14 -49 -14 -65 19 -14 27 -14 31 5 55 24 30
26 31 67 10z m512 -119 c0 -58 -5 -96 -16 -116 -34 -66 -55 -1 -34 106 24 123
50 128 50 10z m582 18 c23 -20 22 -42 -1 -70 -20 -23 -51 -31 -51 -13 0 6 -8
10 -19 10 -10 0 -24 7 -31 15 -17 21 -3 55 23 55 12 0 29 5 37 10 20 13 20 13
42 -7z m-5487 -138 c127 -19 327 -48 445 -64 370 -53 564 -81 590 -87 l25 -6
-25 -20 c-23 -19 -34 -20 -150 -14 -69 3 -206 6 -305 7 l-180 2 172 11 c94 6
175 15 179 19 4 4 3 7 -3 7 -13 0 -374 47 -467 60 -47 7 -73 7 -80 0 -5 -5
-42 -9 -80 -8 l-71 2 70 5 70 6 -57 18 c-31 9 -66 17 -78 17 -28 0 -111 19
-132 31 -10 5 -28 9 -40 9 -13 0 -70 12 -128 25 -90 21 -96 24 -45 19 33 -3
164 -21 290 -39z m6205 -1 c-6 -17 -12 -61 -13 -100 -1 -42 -6 -67 -12 -64
-15 7 -12 161 4 189 18 33 34 13 21 -25z m55 5 c12 -55 -14 -179 -37 -179 -6
0 -8 12 -4 28 3 15 9 62 13 105 6 81 17 98 28 46z m-1936 -33 c-9 -8 -10 -7
-5 7 3 10 7 24 7 30 1 7 3 4 6 -7 3 -10 -1 -23 -8 -30z m-1 -26 c17 0 33 6 36
13 7 13 0 -19 -10 -53 -5 -14 -2 -20 10 -20 9 0 16 -4 16 -10 0 -5 -6 -10 -14
-10 -22 0 -28 -17 -16 -41 13 -24 5 -38 -12 -21 -19 19 -28 14 -28 -12 0 -14
-4 -28 -10 -31 -6 -4 -7 5 -4 23 6 29 -9 52 -21 32 -3 -5 -11 -10 -17 -10 -6
0 -4 8 5 18 23 26 21 48 -5 57 l-23 8 23 4 c27 5 40 29 23 46 -6 6 -11 18 -11
27 1 13 3 12 14 -2 7 -10 26 -18 44 -18z m2008 -8 c-2 -15 -8 -48 -11 -74 -10
-74 -28 -60 -20 15 3 34 9 70 11 80 8 27 26 8 20 -21z m-6479 22 c-3 -3 -12
-4 -19 -1 -8 3 -5 6 6 6 11 1 17 -2 13 -5z m6545 -74 c-4 -84 -22 -105 -22
-26 0 35 -4 55 -10 51 -5 -3 -10 -21 -10 -40 0 -39 -9 -67 -19 -60 -8 4 5 120
15 137 3 5 16 8 27 6 20 -3 22 -8 19 -68z m65 59 c15 -15 5 -39 -16 -39 -14
-1 -14 -2 2 -14 24 -19 23 -82 -2 -95 -14 -8 -22 -7 -32 5 -11 14 -10 19 6 31
14 11 16 17 8 20 -16 6 -17 57 -3 84 12 22 21 24 37 8z m714 -9 c15 -9 19 -21
19 -68 0 -68 -17 -106 -49 -110 -39 -6 -47 14 -13 32 16 8 32 23 36 31 11 31
6 73 -10 79 -23 9 -34 -2 -34 -35 0 -16 -5 -29 -11 -29 -8 0 -9 15 -4 48 9 60
26 73 66 52z m-2312 -37 c0 -5 -4 -17 -9 -28 -8 -18 -9 -17 -9 8 -1 15 4 27 9
27 6 0 10 -3 9 -7z m2411 -50 c0 -27 -4 -42 -10 -38 -5 3 -10 17 -10 31 0 13
-4 24 -10 24 -5 0 -10 -6 -10 -14 0 -8 -3 -21 -6 -29 -3 -8 4 -24 16 -35 23
-21 20 -42 -5 -42 -24 0 -37 38 -30 83 14 84 65 100 65 20z m35 -28 c-4 -41
-11 -75 -16 -75 -10 0 -2 135 8 153 12 20 15 -8 8 -78z m1465 75 c0 -5 -2 -10
-4 -10 -3 0 -8 5 -11 10 -3 6 -1 10 4 10 6 0 11 -4 11 -10z m-3369 -57 c-9
-16 -10 -16 -11 4 0 12 3 30 7 40 7 16 8 16 11 -4 2 -12 -1 -30 -7 -40z m-591
12 c0 -18 50 -21 68 -3 19 19 27 0 9 -20 -21 -23 -22 -52 -2 -52 8 0 15 -4 15
-10 0 -5 -8 -10 -19 -10 -20 0 -36 -36 -20 -46 12 -7 11 -34 -1 -34 -5 0 -10
7 -10 15 0 8 -4 15 -10 15 -5 0 -10 -10 -10 -22 0 -13 -5 -30 -11 -38 -7 -11
-9 -6 -7 22 3 44 -6 56 -27 38 -9 -7 -19 -10 -23 -6 -4 4 0 13 10 20 23 17 27
50 6 51 -20 0 -20 20 -1 20 7 0 18 6 25 13 10 10 10 17 0 32 -15 24 -15 30 -2
30 6 0 10 -7 10 -15z m550 -24 c0 -15 6 -18 30 -16 16 1 36 7 44 14 9 8 16 8
20 2 4 -6 -2 -16 -14 -23 -27 -17 -26 -44 3 -53 21 -7 21 -7 2 -12 -28 -7 -36
-23 -28 -62 4 -24 2 -32 -6 -27 -6 4 -11 14 -11 22 0 31 -19 12 -25 -26 -4
-22 -11 -40 -17 -40 -5 0 -7 8 -4 18 2 9 7 27 11 38 7 26 -18 39 -35 18 -7 -8
-17 -14 -23 -14 -6 0 -1 10 11 23 30 32 29 57 -4 57 -16 0 -23 4 -18 11 3 6
17 9 29 6 27 -5 40 25 24 54 -12 23 -11 29 1 29 6 0 10 -8 10 -19z m2000 -53
c0 -33 -11 -69 -19 -64 -10 6 0 86 10 86 5 0 9 -10 9 -22z m1542 -460 c-9 -9
-12 -7 -12 12 0 19 3 21 12 12 9 -9 9 -15 0 -24z m-4829 15 c-7 -2 -19 -2 -25
0 -7 3 -2 5 12 5 14 0 19 -2 13 -5z"/>
<path d="M6510 8330 c0 -5 7 -10 15 -10 8 0 15 5 15 10 0 6 -7 10 -15 10 -8 0
-15 -4 -15 -10z"/>
<path d="M6040 8260 c0 -22 1 -23 24 -14 13 5 14 9 5 20 -16 20 -29 17 -29 -6z"/>
<path d="M4653 8105 c0 -33 2 -45 4 -27 2 18 2 45 0 60 -2 15 -4 0 -4 -33z"/>
<path d="M6560 8070 c0 -5 5 -10 11 -10 5 0 7 5 4 10 -3 6 -8 10 -11 10 -2 0
-4 -4 -4 -10z"/>
<path d="M6560 8010 c0 -5 5 -10 11 -10 5 0 7 5 4 10 -3 6 -8 10 -11 10 -2 0
-4 -4 -4 -10z"/>
<path d="M5510 7985 c0 -17 2 -18 24 -9 18 7 12 24 -10 24 -8 0 -14 -7 -14
-15z"/>
<path d="M5062 7865 c0 -16 2 -22 5 -12 2 9 2 23 0 30 -3 6 -5 -1 -5 -18z"/>
<path d="M4160 7823 c1 -13 30 -48 30 -36 0 6 3 18 6 27 4 12 0 16 -15 16 -12
0 -21 -3 -21 -7z"/>
<path d="M4150 7779 c0 -11 4 -18 10 -14 5 3 7 12 3 20 -7 21 -13 19 -13 -6z"/>
<path d="M4166 7745 c-4 -10 1 -15 14 -15 11 0 20 7 20 15 0 8 -6 15 -14 15
-8 0 -16 -7 -20 -15z"/>
<path d="M1882 7740 c0 -14 2 -19 5 -12 2 6 2 18 0 25 -3 6 -5 1 -5 -13z"/>
<path d="M941 7664 c0 -11 3 -14 6 -6 3 7 2 16 -1 19 -3 4 -6 -2 -5 -13z"/>
<path d="M297 7548 c-26 -14 -20 -28 13 -28 33 0 36 5 17 25 -9 9 -19 10 -30
3z"/>
<path d="M330 7400 c0 -5 5 -10 11 -10 5 0 7 5 4 10 -3 6 -8 10 -11 10 -2 0
-4 -4 -4 -10z"/>
<path d="M360 7380 c0 -5 5 -10 11 -10 5 0 7 5 4 10 -3 6 -8 10 -11 10 -2 0
-4 -4 -4 -10z"/>
<path d="M10616 7487 c3 -10 9 -15 12 -12 3 3 0 11 -7 18 -10 9 -11 8 -5 -6z"/>
<path d="M912 7400 c0 -19 2 -27 5 -17 2 9 2 25 0 35 -3 9 -5 1 -5 -18z"/>
<path d="M7000 7304 c0 -8 5 -12 10 -9 6 4 8 11 5 16 -9 14 -15 11 -15 -7z"/>
<path d="M7080 7259 c0 -11 5 -17 10 -14 6 3 10 13 10 21 0 8 -4 14 -10 14 -5
0 -10 -9 -10 -21z"/>
<path d="M6530 7226 c0 -9 5 -16 10 -16 6 0 10 4 10 9 0 6 -4 13 -10 16 -5 3
-10 -1 -10 -9z"/>
<path d="M4620 6750 c0 -5 5 -10 10 -10 6 0 10 5 10 10 0 6 -4 10 -10 10 -5 0
-10 -4 -10 -10z"/>
<path d="M10563 6224 c-2 -47 1 -64 10 -61 21 7 21 127 -1 127 -4 0 -8 -30 -9
-66z"/>
<path d="M7186 6155 c-3 -8 -1 -15 4 -15 6 0 10 7 10 15 0 8 -2 15 -4 15 -2 0
-6 -7 -10 -15z"/>
<path d="M7252 6150 c-8 -13 -8 -20 -2 -20 6 0 13 7 17 15 9 24 -1 27 -15 5z"/>
<path d="M4950 5745 c0 -8 5 -15 10 -15 6 0 10 7 10 15 0 8 -4 15 -10 15 -5 0
-10 -7 -10 -15z"/>
<path d="M5532 5551 c-11 -7 -11 -9 2 -14 10 -4 16 -1 16 8 0 17 -1 17 -18 6z"/>
<path d="M5126 4833 c-9 -10 -7 -83 3 -83 11 0 21 25 21 55 0 25 -12 39 -24
28z"/>
<path d="M4850 3821 c-13 -26 -13 -68 1 -77 16 -10 29 15 29 59 0 40 -13 48
-30 18z"/>
<path d="M6697 3684 c-12 -13 -7 -20 13 -20 11 0 19 5 17 10 -4 13 -21 18 -30
10z"/>
<path d="M6691 3619 c8 -16 14 -18 22 -10 9 9 8 14 -3 21 -24 16 -31 11 -19
-11z"/>
<path d="M972 3630 c0 -14 2 -19 5 -12 2 6 2 18 0 25 -3 6 -5 1 -5 -13z"/>
<path d="M961 3534 c0 -11 3 -14 6 -6 3 7 2 16 -1 19 -3 4 -6 -2 -5 -13z"/>
<path d="M871 3364 c0 -11 3 -14 6 -6 3 7 2 16 -1 19 -3 4 -6 -2 -5 -13z"/>
<path d="M2447 3199 c-9 -23 -17 -29 -31 -25 -18 5 -18 4 -3 -11 9 -9 19 -15
21 -12 10 10 36 79 30 79 -3 0 -11 -14 -17 -31z"/>
<path d="M2385 3120 c10 -11 20 -18 23 -15 7 6 -18 35 -31 35 -5 0 -2 -9 8
-20z"/>
<path d="M2435 3127 c-14 -11 -15 -16 -5 -22 11 -7 29 9 30 28 0 10 -3 9 -25
-6z"/>
<path d="M5672 3050 c0 -14 2 -19 5 -12 2 6 2 18 0 25 -3 6 -5 1 -5 -13z"/>
<path d="M6190 2744 c0 -8 5 -12 10 -9 6 3 10 10 10 16 0 5 -4 9 -10 9 -5 0
-10 -7 -10 -16z"/>
<path d="M6180 2690 c0 -5 5 -10 10 -10 6 0 10 5 10 10 0 6 -4 10 -10 10 -5 0
-10 -4 -10 -10z"/>
<path d="M6710 2635 c0 -8 7 -15 15 -15 8 0 15 7 15 15 0 8 -7 15 -15 15 -8 0
-15 -7 -15 -15z"/>
<path d="M6704 2584 c3 -9 6 -18 6 -21 0 -3 7 0 15 7 21 18 19 30 -6 30 -15 0
-19 -4 -15 -16z"/>
<path d="M7262 2618 c-15 -15 -16 -74 -1 -84 6 -3 15 0 20 7 13 21 11 29 -6
23 -11 -5 -14 0 -11 17 2 15 10 23 20 23 9 -1 15 3 13 9 -5 16 -21 19 -35 5z"/>
<path d="M241 6864 l-23 -17 7 -256 c4 -141 12 -264 17 -273 7 -14 21 -18 63
-18 32 0 57 5 62 13 12 18 6 431 -7 435 -5 2 -10 22 -10 43 0 28 4 38 12 33 8
-5 9 -2 5 10 -4 10 -7 24 -7 32 0 20 -89 19 -119 -2z m59 -74 c0 -16 -4 -30
-8 -30 -9 0 -13 27 -6 48 6 22 14 13 14 -18z"/>
<path d="M416 4508 c-16 -25 -68 -493 -59 -528 6 -23 22 -28 83 -30 78 -3 97
0 98 13 0 6 2 37 3 67 1 30 8 64 16 75 7 11 13 39 13 62 0 24 4 43 8 43 5 0 7
20 6 45 -1 25 2 45 7 45 5 0 9 5 9 10 0 6 -7 10 -15 10 -11 0 -13 11 -11 48 3
36 2 39 -3 12 -6 -34 -8 -35 -49 -35 -23 0 -42 -3 -42 -7 0 -5 -7 -8 -15 -8
-18 0 -20 26 -2 33 10 4 10 7 0 18 -17 17 -16 64 0 78 15 12 27 5 27 -16 0 -7
-7 -13 -17 -13 -14 0 -15 -2 -1 -17 9 -10 18 -25 21 -33 3 -8 6 4 6 28 1 23 6
42 11 42 6 0 10 -6 10 -12 0 -7 5 -20 10 -28 9 -13 11 -13 20 0 13 19 13 33 0
25 -5 -3 -10 -1 -10 4 0 6 14 11 30 11 26 0 30 4 30 26 0 40 -26 53 -102 54
-59 0 -69 -3 -82 -22z"/>
<path d="M621 3630 c-1 -8 -4 -26 -7 -40 -5 -19 -4 -22 5 -14 7 6 11 24 8 40
-2 16 -5 22 -6 14z"/>
<path d="M6470 2030 c23 -12 250 -23 250 -11 0 5 -46 11 -102 14 -143 7 -165
7 -148 -3z"/>
<path d="M6910 1972 c0 -5 6 -12 13 -15 37 -14 172 -28 247 -25 l85 3 -90 17
c-120 23 -255 34 -255 20z"/>
<path d="M7830 1921 c0 -4 11 -6 25 -3 14 2 25 6 25 8 0 2 -11 4 -25 4 -14 0
-25 -4 -25 -9z"/>
<path d="M7690 1894 c-27 -6 -54 -8 -67 -3 -14 5 -23 5 -23 -1 0 -13 45 -24
70 -17 11 3 20 1 20 -4 0 -5 -4 -9 -9 -9 -6 0 -9 -41 -7 -95 1 -52 -1 -95 -4
-95 -3 0 -4 -20 -2 -46 3 -33 -1 -50 -13 -65 -20 -21 -45 -25 -45 -7 0 6 -3 8
-7 4 -5 -4 -1 -13 8 -19 9 -7 21 -21 27 -33 6 -11 32 -32 59 -46 48 -27 49
-27 106 -11 31 9 57 20 57 25 0 5 4 7 9 3 15 -9 221 53 221 66 0 4 -28 22 -62
39 -35 18 -72 39 -82 46 -27 19 -56 1 -56 -35 0 -32 -14 -41 -66 -41 l-34 0 0
134 c0 191 -19 231 -100 210z m187 -360 c-3 -3 -12 -4 -19 -1 -8 3 -5 6 6 6
11 1 17 -2 13 -5z m3 -23 c0 -5 -7 -11 -14 -14 -10 -4 -13 -1 -9 9 6 15 23 19
23 5z"/>
<path d="M7480 1882 c0 -5 16 -13 36 -16 19 -4 42 -10 50 -13 8 -3 14 1 14 11
0 9 -8 16 -19 16 -10 0 -33 3 -50 6 -18 4 -31 2 -31 -4z"/>
<path d="M7616 1695 c25 -19 40 -19 24 0 -7 8 -20 15 -28 15 -13 0 -12 -3 4
-15z"/>
<path d="M7405 1590 c3 -5 8 -10 11 -10 2 0 4 5 4 10 0 6 -5 10 -11 10 -5 0
-7 -4 -4 -10z"/>
<path d="M7482 1528 c5 -14 108 -73 108 -61 0 4 -18 16 -40 26 -22 9 -40 21
-40 26 0 5 -7 12 -16 15 -9 4 -14 1 -12 -6z"/>
<path d="M8100 1490 c-18 -12 -2 -12 25 0 13 6 15 9 5 9 -8 0 -22 -4 -30 -9z"/>
<path d="M7980 1455 c-47 -18 -27 -18 30 -1 25 8 36 15 25 15 -11 0 -36 -7
-55 -14z"/>
<path d="M7628 1448 c6 -7 25 -21 44 -32 l33 -19 -35 31 c-35 31 -62 43 -42
20z"/>
<path d="M7895 1430 l-20 -9 20 0 c11 0 27 4 35 9 13 9 13 10 0 9 -8 0 -24 -4
-35 -9z"/>
<path d="M7423 1355 c0 -44 2 -61 4 -37 2 23 2 59 0 80 -2 20 -4 1 -4 -43z"/>
<path d="M7795 1400 l-20 -9 20 0 c11 0 27 4 35 9 13 9 13 10 0 9 -8 0 -24 -4
-35 -9z"/>
<path d="M7750 1390 c-8 -5 -12 -12 -9 -15 4 -3 12 1 19 10 14 17 11 19 -10 5z"/>
<path d="M7421 1254 c0 -11 3 -14 6 -6 3 7 2 16 -1 19 -3 4 -6 -2 -5 -13z"/>
<path d="M8525 1130 c-3 -5 -1 -10 4 -10 6 0 11 5 11 10 0 6 -2 10 -4 10 -3 0
-8 -4 -11 -10z"/>
<path d="M8106 834 c-22 -13 -26 -18 -15 -25 12 -8 12 -11 -1 -19 -8 -5 -10
-10 -5 -10 6 0 3 -4 -5 -10 -10 -6 -14 -27 -13 -77 2 -124 2 -124 43 -117 19
3 41 7 48 9 9 3 12 39 12 135 0 144 -2 147 -64 114z"/>
<path d="M7300 816 c0 -9 7 -12 20 -9 11 3 20 9 20 14 0 5 -9 9 -20 9 -11 0
-20 -6 -20 -14z"/>
<path d="M8528 724 c-5 -4 -8 -21 -7 -38 0 -30 0 -30 10 -7 11 27 8 57 -3 45z"/>
<path d="M7360 665 c0 -8 4 -15 10 -15 5 0 7 7 4 15 -4 8 -8 15 -10 15 -2 0
-4 -7 -4 -15z"/>
<path d="M8497 648 c-4 -20 -13 -39 -20 -41 -9 -3 -9 -8 -1 -16 18 -19 36 12
32 56 l-3 38 -8 -37z"/>
<path d="M8380 616 c0 -2 7 -7 16 -10 8 -3 12 -2 9 4 -6 10 -25 14 -25 6z"/>
<path d="M8220 444 c0 -14 3 -14 15 -4 8 7 15 14 15 16 0 2 -7 4 -15 4 -8 0
-15 -7 -15 -16z"/>
<path d="M7340 422 c0 -11 41 -34 48 -28 3 4 -3 13 -14 21 -21 16 -34 19 -34
7z"/>
<path d="M8230 374 c0 -8 5 -12 10 -9 6 3 10 10 10 16 0 5 -4 9 -10 9 -5 0
-10 -7 -10 -16z"/>
</g>
</svg>
